<svg version="1.1" xmlns="http://www.w3.org/2000/svg" xmlns:xlink="http://www.w3.org/1999/xlink" width="48" height="48"><defs><linearGradient x1="5.26178" y1="5.26176" x2="83.42324" y2="83.4232" gradientUnits="userSpaceOnUse" id="color-1"><stop offset="0" stop-color="#000000" stop-opacity="0.3"></stop><stop offset="1" stop-color="#000000" stop-opacity="0"></stop></linearGradient><filter id="dropshadow-base"><feColorMatrix type="matrix" values="0 0 0 0 0  0 0 0 0 0  0 0 0 0 0  0 0 0 .8 0"></feColorMatrix> <feOffset dx="0" dy="1"></feOffset> <feGaussianBlur stdDeviation="1"></feGaussianBlur> <feComposite in="SourceGraphic"></feComposite></filter><filter id="dropshadow-banner" x="-10%" y="-10%" width="120%" height="130%"><feColorMatrix type="matrix" values="0 0 0 0 0  0 0 0 0 0  0 0 0 0 0  0 0 0 .4 0"></feColorMatrix> <feOffset dx="0" dy="1"></feOffset> <feGaussianBlur stdDeviation="0.5"></feGaussianBlur> <feComposite in="SourceGraphic"></feComposite></filter></defs><g fill="none" fill-rule="nonzero" stroke="none" stroke-width="none" stroke-linecap="butt" stroke-linejoin="miter" stroke-miterlimit="10" stroke-dasharray="" stroke-dashoffset="0" font-family="none" font-weight="none" font-size="none" text-anchor="none" style="mix-blend-mode: normal"><path d="M2,24c0,-12.15026 9.84974,-22 22,-22c12.15026,0 22,9.84974 22,22c0,12.15026 -9.84974,22 -22,22c-12.15026,0 -22,-9.84974 -22,-22z" id="base 1 17" fill="#00acd0" stroke-width="1"></path><path d="M26.12304,5.38234c3.95502,0.43722 7.74262,2.19674 10.64455,4.91565c0.16552,0.15373 0.32816,0.31051 0.48787,0.47021l8.15615,8.15615c0.38478,1.62937 0.58839,3.32873 0.58839,5.07565c0,12.15026 -9.84974,22 -22,22c-1.74769,0 -3.44777,-0.20379 -5.0778,-0.5889l-8.17096,-8.17096c-0.4888,-0.4888 -0.95043,-1.00481 -1.38141,-1.54567c-2.32728,-2.89192 -3.76325,-6.49153 -4.04683,-10.19358c-0.01686,-0.2842 -0.03935,-0.56839 -0.06122,-0.85197v-1.2973c0.06371,-1.12491 0.18302,-2.24858 0.4316,-3.34913c0.86758,-4.04933 3.15051,-7.76886 6.33664,-10.40907c2.63521,-2.20174 5.88629,-3.65333 9.2854,-4.14052c0.67396,-0.10806 1.35665,-0.13741 2.03622,-0.19113l0.00004,0.00004l1.29666,0c0.49156,0.04061 0.98437,0.06497 1.4747,0.12054z" fill="url(#color-1)" stroke-width="1"></path><path d="M23.35166,5.2618h1.29668c0.49157,0.0406 0.98438,0.06496 1.4747,0.12055c3.95501,0.43722 7.74262,2.19674 10.64455,4.91565c2.87694,2.67207 4.88755,6.26543 5.62583,10.12425c0.198,0.96502 0.28232,1.94752 0.34478,2.92941v1.35914c-0.1143,2.28169 -0.599,4.55088 -1.50905,6.65081c-1.51342,3.54589 -4.15551,6.59522 -7.44219,8.6102c-2.01685,1.24422 -4.27418,2.09431 -6.60959,2.49593c-0.81449,0.15365 -1.64209,0.20487 -2.4672,0.27045h-1.42036c-1.15865,-0.07495 -2.31604,-0.2005 -3.44783,-0.46596c-4.10242,-0.92192 -7.85318,-3.29105 -10.47216,-6.57773c-2.32728,-2.89193 -3.76326,-6.49154 -4.04683,-10.19358c-0.01686,-0.2842 -0.03935,-0.56839 -0.06121,-0.85196v-1.29731c0.06371,-1.12492 0.18301,-2.24858 0.4316,-3.34914c0.86758,-4.04933 3.15052,-7.76886 6.33663,-10.40907c2.63522,-2.20174 5.88629,-3.65332 9.2854,-4.14052c0.67395,-0.10806 1.35665,-0.13741 2.03622,-0.19113zM24.00062,6.11501c-0.00687,0.58463 0.01062,1.16926 -0.00937,1.7539c-0.64522,0.01062 -1.29294,0.02561 -1.93066,0.12929c0.05184,0.57589 0.14803,1.1474 0.19987,1.72329c0.57901,-0.03623 1.1574,-0.09244 1.73891,-0.08994c0.00125,-0.58713 0.00125,-1.17364 -0.00125,-1.76077c0.64959,-0.00874 1.29543,0.06558 1.94378,0.09931c0.0837,-0.57464 0.13492,-1.15365 0.21299,-1.72891c-0.7133,-0.09307 -1.43472,-0.14366 -2.15427,-0.12617zM19.72519,6.62781c0.12555,0.57027 0.27795,1.13304 0.41099,1.70143c0.62711,-0.12617 1.25171,-0.27295 1.89068,-0.33042c-0.00625,-0.58713 -0.12992,-1.16427 -0.17427,-1.7489c-0.71955,0.04997 -1.42848,0.20674 -2.12741,0.37789zM28.27293,6.63718c-0.12804,0.56464 -0.27795,1.12429 -0.40662,1.68831c0.62023,0.18738 1.25296,0.34353 1.84946,0.60025c-0.203,0.54716 -0.42348,1.08744 -0.61336,1.63897c0.53404,0.21299 1.05496,0.45596 1.57276,0.70643c0.28107,-0.51155 0.54091,-1.03497 0.82073,-1.54778c0.58401,0.2842 1.12304,0.64897 1.67332,0.9925c0.30481,-0.45784 0.63522,-0.89818 0.93129,-1.36039c0.07495,-0.11118 -0.09681,-0.16864 -0.15927,-0.23048c-0.52717,-0.34291 -1.05996,-0.6827 -1.6271,-0.95565c-0.28357,0.50656 -0.53654,1.02998 -0.81699,1.53841c-0.57964,-0.28045 -1.15802,-0.56589 -1.76514,-0.78451c0.17239,-0.56277 0.42473,-1.09681 0.60275,-1.65771c-0.67333,-0.24859 -1.35602,-0.48907 -2.06183,-0.62835zM15.69086,8.1531c0.25671,0.52592 0.53529,1.04247 0.81386,1.55777c0.57526,-0.29294 1.16239,-0.56277 1.76514,-0.79388c0.22798,0.54153 0.42036,1.09681 0.63023,1.64521c0.54466,-0.19488 1.09681,-0.36789 1.65646,-0.51405c-0.13492,-0.56839 -0.27233,-1.13678 -0.42161,-1.70205c-0.6371,0.12992 -1.24609,0.3629 -1.86445,0.55715c-0.1955,-0.54716 -0.41661,-1.08432 -0.60899,-1.63272c-0.67832,0.2436 -1.33104,0.55278 -1.97063,0.88257zM25.9394,7.99258c-0.04747,0.58651 -0.1624,1.16552 -0.18988,1.75327c0.56777,0.06433 1.12991,0.17177 1.68581,0.30543c0.13991,-0.57339 0.30668,-1.14178 0.40724,-1.72391c-0.62898,-0.14054 -1.26108,-0.27045 -1.90318,-0.33479zM12.13934,10.6153c0.3935,0.43098 0.76452,0.88319 1.17051,1.30293c0.48719,-0.42098 0.99125,-0.82261 1.51967,-1.1905c0.3529,0.46658 0.65771,0.96752 1.00812,1.43472c0.49531,-0.28295 0.96065,-0.62211 1.47657,-0.87195c-0.2461,-0.53404 -0.53841,-1.04622 -0.81074,-1.56714c-0.58463,0.28357 -1.12367,0.64772 -1.6727,0.9925c-0.33416,-0.47595 -0.65084,-0.96439 -1.00062,-1.4291c-0.59338,0.40287 -1.15802,0.84884 -1.69081,1.32854zM22.52968,10.5466c-2.52029,0.27295 -4.95563,1.2742 -6.93626,2.85758c-2.21423,1.75327 -3.86382,4.21422 -4.62146,6.93688c-0.67582,2.39412 -0.67458,4.97499 0.01374,7.36661c0.88819,3.14989 2.975,5.93564 5.73389,7.69328c2.15677,1.38288 4.71578,2.14552 7.28042,2.12304c2.32166,0.02061 4.63833,-0.60462 6.65643,-1.74765c2.0206,-1.14428 3.73765,-2.8176 4.93689,-4.80635c1.21548,-2.01935 1.90567,-4.36163 1.92941,-6.72139c0.05434,-2.21798 -0.46721,-4.44408 -1.48219,-6.41534c-1.47345,-2.88693 -4.01934,-5.20797 -7.03307,-6.40222c-2.04246,-0.8276 -4.28855,-1.1118 -6.4778,-0.88444zM34.69014,11.91823c-0.48782,-0.42036 -0.9925,-0.82198 -1.52029,-1.19175c-0.34416,0.47845 -0.6827,0.96065 -1.00312,1.45533c0.46221,0.33854 0.92129,0.6827 1.3479,1.0662c0.40225,-0.43035 0.78326,-0.87945 1.17801,-1.31667c0.49094,0.42473 0.95065,0.88569 1.37601,1.37538c-0.43722,0.39538 -0.88694,0.77576 -1.3173,1.17863c0.38413,0.42598 0.72829,0.88507 1.06683,1.34728c0.49344,-0.3198 0.97626,-0.65709 1.45284,-1.00187c-0.36664,-0.52967 -0.76952,-1.0331 -1.18925,-1.52154c0.41786,-0.40662 0.87507,-0.77014 1.29668,-1.17364c-0.46908,-0.53841 -0.97626,-1.04434 -1.51405,-1.51342c-0.40912,0.41536 -0.76389,0.88132 -1.17426,1.29606zM11.93073,13.30673c0.44035,0.38726 0.8707,0.78576 1.32104,1.16114c0.38851,-0.42223 0.7945,-0.82635 1.21486,-1.21611c-0.37227,-0.45222 -0.77451,-0.87945 -1.15927,-1.32104c-0.48907,0.42661 -0.95377,0.88382 -1.37663,1.37601zM9.28676,13.83015c0.46471,0.34978 0.95377,0.66646 1.4291,1.00124c-0.34416,0.54903 -0.71143,1.08682 -0.9925,1.6727c0.52217,0.2717 1.03123,0.56902 1.56776,0.81011c0.25796,-0.50468 0.5584,-0.98625 0.8782,-1.45408c-0.45784,-0.37351 -0.97251,-0.67083 -1.44159,-1.02998c0.36789,-0.52904 0.77014,-1.03372 1.19112,-1.52154c-0.42411,-0.40162 -0.87008,-0.77888 -1.3048,-1.16864c-0.47845,0.53341 -0.92442,1.09681 -1.32729,1.69019zM37.28351,14.83202c0.34353,0.54903 0.70955,1.08682 0.9925,1.67207c-0.51155,0.28107 -1.0356,0.53904 -1.54653,0.82136c0.25047,0.51717 0.49219,1.0381 0.70643,1.57214c0.54965,-0.19363 1.09056,-0.41162 1.63709,-0.61524c0.25734,0.59712 0.41411,1.22985 0.60025,1.85133c0.56464,-0.12929 1.12429,-0.28045 1.68956,-0.40787c-0.13991,-0.70581 -0.38351,-1.38725 -0.62898,-2.06183c-0.5609,0.17926 -1.09618,0.42973 -1.65833,0.60462c-0.21861,-0.60587 -0.50156,-1.1855 -0.78513,-1.76264c0.50718,-0.28482 1.03247,-0.53591 1.53966,-0.82011c-0.31293,-0.64834 -0.7083,-1.25171 -1.10493,-1.85071c-0.4822,0.32979 -0.96127,0.66396 -1.44159,0.99687zM8.1531,15.69273c-0.33167,0.63835 -0.63772,1.29231 -0.88257,1.96876c0.5484,0.19238 1.08557,0.41349 1.63272,0.60837c-0.19425,0.61899 -0.42786,1.22735 -0.55715,1.86445c0.56527,0.14928 1.13304,0.28919 1.70268,0.42286c0.14303,-0.56027 0.3198,-1.10993 0.51155,-1.65521c-0.54716,-0.21174 -1.10181,-0.40475 -1.64334,-0.63148c0.22611,-0.60462 0.50468,-1.18738 0.79263,-1.76451c-0.51468,-0.2792 -1.0306,-0.55652 -1.55652,-0.81324zM6.62969,19.72394c-0.15927,0.62586 -0.28357,1.26171 -0.36914,1.90193c0.00062,0.07495 -0.05434,0.23173 0.0737,0.22986c0.5534,0.06309 1.10618,0.1524 1.66333,0.17614c0.05621,-0.64022 0.20425,-1.26733 0.33229,-1.89631c-0.56777,-0.13242 -1.13116,-0.28357 -1.70018,-0.41162zM37.94934,20.56529c0.13616,0.55465 0.23548,1.11867 0.30668,1.68581c0.58588,-0.03498 1.16427,-0.13991 1.74952,-0.18613c-0.05184,-0.64522 -0.20425,-1.27545 -0.33229,-1.90817c-0.58213,0.10119 -1.15115,0.26608 -1.72391,0.40849zM40.02741,22.05747c0.04809,0.64647 0.10556,1.29231 0.09806,1.94128c-0.58526,0.00375 -1.17114,-0.00062 -1.75639,0.00187c-0.00999,1.29731 -0.17801,2.59524 -0.52904,3.8457c-0.55777,2.0181 -1.57338,3.90567 -2.9369,5.49404c-1.47907,1.72704 -3.37163,3.0993 -5.47718,3.95876c-2.43159,0.99937 -5.14176,1.30543 -7.73575,0.87882c-2.38225,-0.38226 -4.65832,-1.38725 -6.55275,-2.88069c-2.61023,-2.04184 -4.48593,-5.00872 -5.17612,-8.25293c-0.35165,-1.56839 -0.39725,-3.19049 -0.2386,-4.78636c-0.57589,-0.05309 -1.14803,-0.13929 -1.72391,-0.193c-0.09619,0.63835 -0.12242,1.28544 -0.12804,1.93066c-0.58463,0.00999 -1.17051,0.00062 -1.75577,0.005c-0.03373,3.53153 1.06121,7.05493 3.03559,9.97872c1.4266,2.11492 3.30667,3.92378 5.47905,5.26231c1.85446,1.1499 3.9244,1.94378 6.06743,2.35102c2.56588,0.47345 5.2367,0.39538 7.76386,-0.26109c2.05058,-0.5228 4.00061,-1.42785 5.73826,-2.63459c3.05183,-2.11867 5.42346,-5.20297 6.66393,-8.70702c0.92442,-2.59524 1.24172,-5.41097 0.89506,-8.14487c-0.57776,0.06309 -1.15427,0.13616 -1.73079,0.21237zM20.07809,11.76833c0.8657,-0.25546 1.76701,-0.42661 2.67269,-0.38538c1.00499,-0.03935 2.01498,0.13242 2.95939,0.47533c0.66458,0.21549 1.30793,0.51842 1.86008,0.95128c0.34041,0.26483 0.69456,0.51155 1.03185,0.78013c0.41974,0.39225 0.82573,0.80137 1.17801,1.25671c0.59213,0.80949 1.04996,1.72267 1.30668,2.69393c0.15615,0.56527 0.35103,1.12554 0.39975,1.71392c0.01499,0.36602 0.1193,0.73141 0.04747,1.09806c-0.06746,0.61024 -0.17427,1.23048 -0.47408,1.77451c-0.37476,0.82323 -0.97439,1.51217 -1.54965,2.19924c-0.16115,0.19738 -0.4797,0.40412 -0.35103,0.69519c0.13242,0.39163 0.20737,0.7995 0.2361,1.21174c0.10993,0.65584 -0.01249,1.3148 -0.09119,1.96626c0.25796,-0.15803 0.48095,-0.36352 0.72142,-0.54591c0.09119,-0.07433 0.20425,-0.14491 0.22861,-0.26921c0.09307,-0.33666 0.17427,-0.69519 0.41287,-0.96377c0.2005,-0.22174 0.42848,-0.44285 0.72454,-0.52405c0.13866,-0.05247 0.29794,-0.06059 0.42348,-0.14116c0.26171,-0.29544 0.40287,-0.80887 0.86071,-0.83885c0.05372,0.18051 0.09619,0.37102 0.04685,0.55777c-0.0787,0.35228 -0.1524,0.70581 -0.22923,1.05871c0.18863,-0.06246 0.3248,0.10119 0.42036,0.24047c0.10493,0.30543 -0.09869,0.58276 -0.25921,0.82386c-0.2386,0.30856 -0.66146,0.36664 -0.95065,0.60837c-0.3935,0.48594 -0.73829,1.00874 -1.11867,1.5053c-0.38726,0.51905 -0.78576,1.03123 -1.14803,1.56901c0.47033,0.51155 0.89444,1.07495 1.18925,1.70767c0.07933,0.17114 0.16052,0.34104 0.24422,0.5103c-0.04122,-0.0025 -0.1243,-0.00812 -0.16615,-0.01062c-0.34916,-0.75328 -0.85259,-1.4266 -1.39725,-2.04933c-0.22923,-0.37476 -0.61711,-0.60587 -0.93941,-0.89256c0.37789,0.44035 0.78825,0.85696 1.1118,1.34166c0.41661,0.55278 0.7133,1.18051 1.01811,1.79824c-0.04185,-0.0025 -0.1243,-0.00874 -0.16615,-0.01124c-0.54716,-1.03247 -1.17926,-2.04496 -2.03747,-2.85008c-0.19425,-0.17926 -0.35415,-0.41911 -0.61024,-0.51468c-0.06558,-0.01249 -0.17177,0.11118 -0.10431,0.16115c0.28669,0.33854 0.63897,0.61461 0.92442,0.9544c0.44347,0.56839 0.89381,1.14178 1.20237,1.79762c0.12867,0.25234 0.26858,0.50781 0.29731,0.79512c-0.13679,-0.12555 -0.2311,-0.28794 -0.28857,-0.46283c-0.53904,0.01999 -1.06745,0.14303 -1.60274,0.20362c0.14553,0.14241 0.26671,0.3248 0.45159,0.41724c0.29232,-0.05184 0.57339,-0.1549 0.8682,-0.198c-0.09307,0.27857 -0.27233,0.53154 -0.31418,0.82386c0.08932,0.26983 0.31105,0.4822 0.401,0.75765c-0.29481,0.00187 -0.58338,-0.06433 -0.87695,-0.07058c-0.16302,0.23922 -0.34666,0.46533 -0.55902,0.66146c-0.10618,-0.26733 -0.11743,-0.56152 -0.22611,-0.82635c-0.24922,-0.16365 -0.55528,-0.21799 -0.81324,-0.36914c0.24922,-0.1599 0.50656,-0.30731 0.75515,-0.46846c0.01312,-0.2311 0.04872,-0.45909 0.0812,-0.68769c-0.50593,0.05434 -1.00749,0.14553 -1.51217,0.20799c-0.00187,0.27733 0.05247,0.55028 0.06808,0.82698c-0.08682,-0.09681 -0.18801,-0.20175 -0.18051,-0.34228c-0.05809,-1.15927 -0.33479,-2.31479 -0.88944,-3.3404c-0.18363,0.02561 -0.36852,0.0331 -0.5534,0.0356c0.3629,0.64647 0.391,1.40849 0.48594,2.12741c0.03248,0.47533 0.00437,0.95315 0.01312,1.42972c-0.03123,0 -0.09369,-0.00062 -0.12492,-0.00062c0.03248,-0.50031 -0.07058,-0.9925 -0.0762,-1.49156c-0.08744,-0.70268 -0.16677,-1.42972 -0.50406,-2.06433c-0.45971,-0.01749 -0.92254,0.02498 -1.38038,-0.03498c-0.10993,-0.03435 -0.17114,0.0837 -0.24859,0.13866c0.18613,0.0862 0.41599,0.13429 0.52779,0.32417c0.25172,0.37289 0.25671,0.85946 0.14678,1.28232c-0.11555,0.54653 -0.51093,0.97314 -0.92442,1.32229c-0.10493,0.08994 -0.23423,0.14179 -0.36977,0.16177c0.42223,-0.34416 0.78888,-0.76327 1.01936,-1.26046c0.18239,-0.41411 0.23048,-0.9163 0.01062,-1.32542c-0.12117,-0.16115 -0.29919,-0.31418 -0.51218,-0.30606c-0.20737,-0.02249 -0.31917,0.18239 -0.45346,0.30231c-0.2336,0.26796 -0.53904,0.45846 -0.78013,0.71892c-0.23048,0.24984 -0.51155,0.44472 -0.7539,0.68207c-0.2386,0.22486 -0.53654,0.38413 -0.74703,0.63835c-0.02748,0.21861 0.05059,0.43598 0.06184,0.65459c0.24734,0.16302 0.50468,0.30918 0.75328,0.46908c-0.20987,0.11056 -0.43285,0.19051 -0.65271,0.27733c-0.06496,0.03248 -0.1574,0.05247 -0.17926,0.13304c-0.08807,0.24672 -0.09806,0.5153 -0.19987,0.7589c-0.25047,-0.13429 -0.38851,-0.41911 -0.56652,-0.63522c-0.29419,0.00625 -0.58276,0.07245 -0.87695,0.07058c0.09119,-0.23798 0.24172,-0.44347 0.37102,-0.65958c0.05934,-0.09307 0.01999,-0.20737 -0.01749,-0.29981c-0.08994,-0.20674 -0.18301,-0.41224 -0.26671,-0.62148c0.29419,0.04185 0.57526,0.14678 0.86758,0.19613c0.13866,-0.05309 0.22236,-0.19488 0.33354,-0.29044c0.18176,-0.19987 0.45409,-0.28545 0.63085,-0.49094c0.12804,-0.14303 0.26046,-0.28357 0.41411,-0.39912c0.27233,-0.20425 0.47845,-0.48095 0.75015,-0.68644c0.29481,-0.22361 0.51717,-0.52654 0.81199,-0.74953c0.19738,-0.14928 0.37476,-0.32417 0.5203,-0.52467c-0.71955,-0.33979 -1.36414,-0.82136 -1.94253,-1.36352c-0.35415,-0.38975 -0.66583,-0.82073 -0.9138,-1.28607c-1.05496,-0.06059 -2.12679,-0.193 -3.10055,-0.6296c-0.57027,-0.21861 -1.06558,-0.58651 -1.53903,-0.96439c-1.03372,-0.92254 -1.74515,-2.14865 -2.25983,-3.42222c-0.25109,-0.56027 -0.36727,-1.16614 -0.48345,-1.76514c-0.05497,-0.38476 -0.01249,-0.77514 -0.02561,-1.16239c-0.03435,-1.00374 0.23985,-1.99499 0.65771,-2.90067c0.22923,-0.57089 0.57339,-1.08557 0.89506,-1.60711c0.38226,-0.60275 0.73391,-1.24234 1.27357,-1.72267c1.20362,-1.31417 2.89505,-2.08868 4.62022,-2.44096zM20.28796,11.91449c-0.54965,0.10556 -1.08931,0.26109 -1.61586,0.44909c-1.68082,0.61524 -3.22422,1.75077 -4.09367,3.3404c-0.3629,0.54153 -0.71268,1.09369 -1.00687,1.67582c-0.16615,0.401 -0.35728,0.7945 -0.48032,1.21174c-0.05559,0.1524 0.01187,0.30731 0.06496,0.44972c0.97626,2.50093 1.9419,5.00747 2.8251,7.54337c0.08807,0.21174 0.09244,0.49969 0.3223,0.61586c1.09494,0.66146 2.3835,0.96002 3.65457,0.98313c-0.09307,-0.29294 -0.2005,-0.58276 -0.25297,-0.88694c-0.09494,-0.63335 0.12117,-1.3123 0.5915,-1.75327c0.62336,-0.67895 1.50967,-0.99937 2.3379,-1.34728c0.41037,-0.13804 0.78013,-0.37102 1.19487,-0.49656c0.84759,-0.30543 1.71704,-0.56964 2.61335,-0.68769c0.44722,-0.02374 0.90568,-0.04247 1.34353,0.07558c0.29981,0.07433 0.5484,0.27295 0.77764,0.47158c0.24859,0.28357 0.39225,0.64772 0.46034,1.01561c0.66208,-0.79887 1.41224,-1.55465 1.84821,-2.51029c0.14616,-0.29794 0.28669,-0.60712 0.34416,-0.93566c-0.12804,-0.75827 -0.21237,-1.52466 -0.38226,-2.27607c-0.1268,-0.74953 -0.35852,-1.47407 -0.53966,-2.21048c-0.09869,-0.34978 -0.22923,-0.68894 -0.33479,-1.03622c-0.15803,-0.56527 -0.6296,-0.95065 -0.98001,-1.39537c-0.39288,-0.4035 -0.85509,-0.73141 -1.30355,-1.06995c-1.10118,-0.90318 -2.50342,-1.36039 -3.90004,-1.53841c-0.42223,-0.06371 -0.85071,-0.01936 -1.27545,-0.0331c-0.75078,-0.01562 -1.49531,0.13616 -2.21298,0.34541zM30.42908,16.36044c0.06059,0.32792 0.16989,0.64397 0.24172,0.96876c0.26171,0.95502 0.45659,1.92879 0.59213,2.90942c0.01749,0.0812 0.05621,0.15553 0.09057,0.2311c0.06246,-0.47595 -0.02561,-0.95065 -0.08869,-1.42098c-0.06558,-0.48032 -0.23235,-0.93753 -0.34603,-1.40724c-0.13179,-0.43785 -0.26171,-0.88194 -0.48969,-1.28107zM12.96445,19.10808c-0.13429,0.4747 -0.14303,0.97001 -0.20612,1.45596c0.0331,0.98313 0.21174,1.97376 0.62711,2.87257c0.47033,1.09369 1.06246,2.16926 1.94752,2.98437c0.16427,0.17427 0.33666,0.34478 0.54653,0.46533c-0.56964,-1.66145 -1.193,-3.30354 -1.81136,-4.94751c-0.37039,-0.94253 -0.71143,-1.89756 -1.10368,-2.83072zM26.33603,23.213c-0.95627,0.13304 -1.86757,0.46658 -2.77138,0.79263c-0.8682,0.4291 -1.8251,0.68332 -2.62522,1.24484c-0.50031,0.31855 -0.92379,0.80949 -1.0281,1.40786c-0.15115,0.61274 0.14428,1.20112 0.36352,1.75577c0.48407,0.85509 1.21861,1.55465 2.04871,2.07369c0.37914,0.2311 0.77264,0.51967 1.2386,0.50905c0.30856,-0.00187 0.61399,0.10306 0.92254,0.0431c0.21112,-0.0381 0.42536,-0.04247 0.63897,-0.05247c0.93629,-0.1168 1.87569,-0.40037 2.63397,-0.98063c0.6346,-0.42286 1.05184,-1.09306 1.33416,-1.787c0.27982,-1.16114 0.17052,-2.39911 -0.22986,-3.51966c-0.09432,-0.37976 -0.20112,-0.78888 -0.50218,-1.06183c-0.24922,-0.21861 -0.5584,-0.37164 -0.88569,-0.42723c-0.37664,-0.0431 -0.76077,-0.03873 -1.13803,0.00187zM31.92251,25.9825c-0.41162,0.03685 -0.84322,0.18926 -1.08994,0.53966c-0.21049,0.30293 -0.42098,0.65709 -0.36789,1.04059c-0.3935,0.30356 -0.76639,0.6346 -1.18176,0.9088c-0.1268,0.06933 -0.16989,0.21237 -0.23423,0.33229c-0.17489,0.34541 -0.40662,0.66396 -0.69206,0.92629c-0.09869,0.10056 -0.21799,0.18738 -0.28357,0.31543c0.38726,0.36664 0.8301,0.67208 1.23735,1.01748c0.75702,-0.95752 1.45159,-1.96314 2.19362,-2.93253c0.25234,-0.31418 0.72767,-0.32355 0.97376,-0.64897c0.13242,-0.19238 0.31168,-0.40225 0.26546,-0.65271c-0.12492,-0.09869 -0.30606,-0.06683 -0.4366,-0.15678c0.02998,-0.5103 0.23485,-0.99312 0.25484,-1.50468c-0.2817,0.21237 -0.44285,0.53092 -0.63897,0.81511zM26.64209,30.8282c-0.34666,0.14491 -0.71767,0.21174 -1.08182,0.29419c0.47408,0.82448 0.69581,1.75827 0.82698,2.69205c0.97688,-0.10056 1.94253,-0.29606 2.92129,-0.38226c0.08932,-0.0075 0.18239,-0.01749 0.25734,-0.07308c-0.05372,-0.14366 -0.13929,-0.27233 -0.22049,-0.40162c-0.36664,-0.55965 -0.73329,-1.12554 -1.19924,-1.60961c-0.23173,-0.31168 -0.52529,-0.57089 -0.84322,-0.79138c-0.22923,0.06683 -0.4366,0.19051 -0.66083,0.2717zM19.49096,34.36847c-0.21237,0.00375 -0.41287,-0.07808 -0.61461,-0.13242c0.07745,0.16302 0.18738,0.3223 0.19488,0.50905c0.02498,0.2361 -0.16427,0.41099 -0.2767,0.59775c0.2055,-0.02998 0.41786,-0.06683 0.62398,-0.02249c0.15178,0.12929 0.25984,0.30044 0.391,0.44972c0.05059,-0.16927 0.07245,-0.34791 0.15115,-0.50718c0.12305,-0.19363 0.36539,-0.2411 0.5559,-0.34104c-0.15927,-0.11056 -0.33729,-0.20237 -0.46471,-0.3504c-0.07558,-0.18676 -0.07433,-0.396 -0.1218,-0.59025c-0.14616,0.12804 -0.26421,0.29794 -0.4391,0.38726zM28.06494,33.97872c-0.04747,0.18676 -0.07121,0.37789 -0.07808,0.57027c-0.1574,0.13804 -0.32792,0.25921 -0.50281,0.37351c0.19175,0.09869 0.4316,0.14803 0.5559,0.33979c0.07433,0.1574 0.09182,0.33416 0.15053,0.49781c0.14116,-0.13741 0.24047,-0.3123 0.39038,-0.44035c0.20674,-0.0431 0.41911,-0.0075 0.62523,0.02311c-0.09307,-0.13866 -0.19862,-0.2717 -0.26358,-0.42661c-0.06558,-0.24547 0.0737,-0.47158 0.18114,-0.6802c-0.20175,0.05434 -0.40287,0.13616 -0.61461,0.13179c-0.17614,-0.09057 -0.29544,-0.26171 -0.4441,-0.38913zM21.90195,11.65777c0.62023,-0.04934 1.25359,-0.05746 1.86445,0.08307c0.88694,0.1524 1.71767,0.57276 2.37351,1.18738c0.69144,0.71517 1.16614,1.60899 1.50468,2.53653c0.03873,0.30356 0.08432,0.60837 0.10119,0.91442c-0.0787,0.66146 -0.07995,1.34853 -0.33729,1.97438c-0.27608,0.54466 -0.64647,1.04934 -1.12304,1.43472c-0.80637,0.64459 -1.79387,1.0687 -2.82135,1.18176c-0.86633,0.12929 -1.72142,-0.1243 -2.55839,-0.31293c-0.61461,-0.19238 -1.15802,-0.55965 -1.64147,-0.97751c-0.20612,-0.16739 -0.41287,-0.33541 -0.58588,-0.53841c-0.4747,-0.57339 -0.96002,-1.17613 -1.14865,-1.91192c-0.23985,-0.70893 -0.16739,-1.47345 -0.05871,-2.19986c0.13866,-0.89131 0.67582,-1.68831 1.37851,-2.23859c0.89194,-0.64272 1.95439,-1.04684 3.05245,-1.13304zM21.83949,11.8439c-0.93254,0.10493 -1.83947,0.42161 -2.62335,0.93816c-0.62711,0.45909 -1.19675,1.05496 -1.44159,1.80824c-0.23235,0.66958 -0.23922,1.38913 -0.19238,2.08806c0.07245,0.35603 0.18738,0.70456 0.33666,1.0356c0.60899,1.13366 1.57776,2.07057 2.73203,2.63959c0.30668,0.16115 0.66396,0.13929 0.98313,0.26296c1.09618,0.34791 2.31042,0.22423 3.34477,-0.26109c0.90818,-0.41661 1.72204,-1.09556 2.20236,-1.98c0.23735,-0.51155 0.28295,-1.08432 0.36165,-1.63584c0.06059,-0.41474 -0.01312,-0.8326 -0.10556,-1.2361c-0.08682,-0.37289 -0.30044,-0.69581 -0.45909,-1.03935c-0.51905,-1.09181 -1.4647,-2.00062 -2.62585,-2.37288c-0.80199,-0.29294 -1.67082,-0.31543 -2.51279,-0.24734zM26.77638,24.03185c0.17052,-0.03997 0.36539,0.0075 0.4722,0.15303c0.2461,0.3148 0.37539,0.70456 0.45659,1.09119c0.03185,0.25859 0.06371,0.58151 -0.15303,0.77201c-0.16864,0.09307 -0.42161,0.10681 -0.5634,-0.04185c-0.33604,-0.30481 -0.44597,-0.77201 -0.52842,-1.19987c-0.05059,-0.28357 -0.01499,-0.68394 0.31605,-0.77451zM26.82947,24.31355c-0.19238,0.07933 -0.193,0.34541 -0.02811,0.45097c0.10868,0.0837 0.24797,-0.00437 0.32355,-0.09057c0.07433,-0.18114 -0.09244,-0.43223 -0.29544,-0.3604zM22.96628,25.21861c0.17052,-0.03997 0.36477,0.0075 0.4722,0.15303c0.2461,0.3148 0.37539,0.70456 0.45721,1.09119c0.03185,0.25859 0.06309,0.58151 -0.15365,0.77201c-0.16864,0.09307 -0.42161,0.10743 -0.5634,-0.04185c-0.3248,-0.29044 -0.43223,-0.73704 -0.52092,-1.14615c-0.05746,-0.29606 -0.04435,-0.72892 0.30856,-0.82823zM23.01874,25.49968c-0.29544,0.10244 -0.09681,0.60899 0.17801,0.45534c0.27295,-0.09806 0.0837,-0.5534 -0.17801,-0.45534zM38.66639,26.787c0.02374,-0.20799 0.193,-0.37476 0.39663,-0.41162c0.32792,-0.06496 0.67145,-0.03061 0.99312,0.05434c0.20674,0.05434 0.43223,0.20799 0.42848,0.44534c-0.01686,0.45034 -0.09681,0.89569 -0.16739,1.33978c-0.60837,-0.03997 -1.21361,-0.11743 -1.82073,-0.17302c0.05996,-0.41786 0.10244,-0.83822 0.16989,-1.25483zM39.23603,27.12054c-0.07245,0.09869 -0.05309,0.23173 -0.07121,0.34728c0.2336,0.01374 0.46658,0.03123 0.70081,0.03997c-0.01874,-0.13367 0.05184,-0.33416 -0.10868,-0.401c-0.16302,-0.06246 -0.36852,-0.08307 -0.52092,0.01374zM7.26741,26.70892c0.60462,-0.06059 1.20612,-0.14678 1.81011,-0.20862c0.06996,0.39475 0.13117,0.79013 0.19051,1.18613c0.02998,0.18926 0.03248,0.4316 -0.15553,0.54278c-0.2767,0.16677 -0.64834,0.18926 -0.94066,0.05059c-0.31543,-0.18114 -0.34853,-0.58151 -0.41411,-0.90193c0.1624,-0.02374 0.32542,-0.04622 0.48782,-0.06808c0.05184,0.09806 0.09806,0.2005 0.1649,0.29044c0.08182,0.00062 0.16427,-0.00999 0.2461,-0.01749c-0.0075,-0.11805 -0.01562,-0.2361 -0.02374,-0.35353c-0.4291,0.01562 -0.85134,0.10306 -1.27982,0.13429c-0.02686,-0.21861 -0.05621,-0.4366 -0.08557,-0.65459zM13.03191,26.80074c0.50905,0.21549 0.75702,0.79637 0.76827,1.32042c0.01811,0.26796 -0.09619,0.5509 0.02436,0.80574c0.14241,0.32355 0.31418,0.63335 0.4797,0.94565c-0.02249,-0.33292 -0.04872,-0.68082 0.0787,-0.9975c0.07183,-0.19862 0.21424,-0.35915 0.3604,-0.50656c0.16864,0.2386 0.28919,0.5178 0.28732,0.81511c0.02436,0.4341 -0.1624,0.84197 -0.396,1.19675c0.18488,0.28669 0.38226,0.56714 0.61711,0.81511c-0.04934,-0.40849 -0.10181,-0.84634 0.09556,-1.22673c0.08057,-0.17989 0.21986,-0.32355 0.35852,-0.45971c0.28607,0.3504 0.31917,0.84135 0.19738,1.26358c-0.07808,0.2767 -0.24485,0.5153 -0.39038,0.76015c0.27795,0.28669 0.55715,0.57276 0.86258,0.83135c-0.09244,-0.38039 -0.16552,-0.78513 -0.04622,-1.16801c0.07308,-0.27233 0.2361,-0.5178 0.47408,-0.67208c0.17239,0.29107 0.26796,0.6321 0.21986,0.97189c-0.03061,0.38851 -0.24172,0.72454 -0.44972,1.04184c0.14428,0.11118 0.29794,0.21174 0.42411,0.34416c-0.00999,0.06246 -0.02186,0.1243 -0.03498,0.18676c-0.36477,-0.24172 -0.69081,-0.53529 -1.01811,-0.82386c-0.29919,0.20737 -0.62898,0.4035 -1.00249,0.42161c-0.36227,0.03248 -0.72829,-0.09869 -0.9875,-0.35415c0.16864,-0.19113 0.37289,-0.36102 0.62211,-0.43098c0.34416,-0.11555 0.70893,-0.0331 1.04996,0.04997c-0.21924,-0.24297 -0.4391,-0.48594 -0.64334,-0.74203c-0.38601,0.12367 -0.80574,0.23298 -1.20612,0.10244c-0.3173,-0.08307 -0.57214,-0.30481 -0.76077,-0.56527c0.43847,-0.401 1.08744,-0.27545 1.57214,-0.03435c-0.14054,-0.25609 -0.29981,-0.50031 -0.46158,-0.74328c-0.40787,0.02498 -0.83822,-0.02436 -1.18238,-0.26233c-0.27857,-0.17364 -0.45596,-0.46346 -0.55902,-0.76889c0.4822,-0.19113 0.99562,0.0075 1.37663,0.31605c-0.13304,-0.48532 -0.60587,-0.76389 -0.7539,-1.24109c-0.15803,-0.38226 -0.12804,-0.81324 0.02374,-1.19175zM34.19983,28.12053c0.01124,-0.52405 0.25859,-1.1043 0.76702,-1.31979c0.1524,0.37851 0.18301,0.81011 0.02498,1.19175c-0.14928,0.47657 -0.62086,0.75577 -0.7539,1.24172c0.38288,-0.3123 0.90256,-0.50968 1.386,-0.31168c-0.13554,0.35852 -0.37164,0.69269 -0.72892,0.85571c-0.30731,0.17302 -0.66583,0.16552 -1.00624,0.18301c-0.20175,0.21049 -0.32604,0.48282 -0.47595,0.73017c0.33729,-0.14366 0.70206,-0.28982 1.07557,-0.20425c0.16739,0.04435 0.38851,0.07745 0.46721,0.25359c-0.2311,0.39663 -0.70081,0.61211 -1.1499,0.61087c-0.27233,0.005 -0.53154,-0.08682 -0.78888,-0.16302c-0.20425,0.25609 -0.42286,0.49969 -0.64522,0.74078c0.35603,-0.08557 0.74141,-0.16864 1.09681,-0.0331c0.23173,0.07433 0.41724,0.23798 0.57714,0.41599c-0.2461,0.23798 -0.58276,0.37851 -0.92692,0.35728c-0.39538,-0.0025 -0.7489,-0.20362 -1.06308,-0.42473c-0.32792,0.28794 -0.65271,0.58213 -1.01811,0.82323c-0.01374,-0.06184 -0.02561,-0.12367 -0.03498,-0.18551c0.12555,-0.13304 0.2792,-0.23423 0.42348,-0.34478c-0.20862,-0.3173 -0.42098,-0.65334 -0.44972,-1.04184c-0.04809,-0.33979 0.04685,-0.68082 0.22049,-0.97189c0.34728,0.22111 0.51405,0.63585 0.53404,1.03372c0.01874,0.27358 -0.04872,0.54153 -0.10618,0.80699c0.29294,-0.26358 0.59025,-0.52654 0.84384,-0.82823c-0.06496,-0.19488 -0.20987,-0.3504 -0.28919,-0.53841c-0.21112,-0.47033 -0.22236,-1.07307 0.1143,-1.48906c0.25609,0.22548 0.44347,0.53154 0.48594,0.87445c0.03997,0.27045 -0.0075,0.54216 -0.03185,0.81199c0.23548,-0.24797 0.4316,-0.52904 0.61774,-0.81511c-0.23485,-0.35415 -0.42098,-0.76202 -0.396,-1.19675c-0.00312,-0.29794 0.11805,-0.57589 0.28669,-0.81574c0.43972,0.36539 0.50968,0.97126 0.43972,1.50468c0.16427,-0.3123 0.33604,-0.62148 0.47845,-0.94503c0.12242,-0.25546 0.00687,-0.53904 0.02561,-0.80699zM27.19174,27.26045c0.04122,-0.1118 0.16864,-0.07121 0.20425,0.02124c0.15365,0.25609 0.38351,0.44972 0.56464,0.68394c-0.08682,0.05559 -0.17364,0.11118 -0.25984,0.16739c-0.05934,0.64022 -0.37414,1.28856 -0.93753,1.62897c-0.49406,0.32792 -1.15865,0.30231 -1.6627,0.00999c-0.35977,-0.14928 -0.53779,-0.54778 -0.91692,-0.66458c0.09369,-0.26858 0.16365,-0.54466 0.21924,-0.82323c0.06558,0.03935 0.13054,0.07995 0.1955,0.1218c0.41974,-0.11618 0.83572,-0.24547 1.25296,-0.37039c0.47595,-0.17614 0.9519,-0.35603 1.44347,-0.48657c-0.03935,-0.09432 -0.08557,-0.18738 -0.10306,-0.28857zM24.5153,28.63833c-0.01999,0.09806 -0.03997,0.19613 -0.06121,0.29419c0.04247,0.03623 0.0862,0.0737 0.12992,0.11056c0.58151,-0.52779 1.47345,-0.78138 2.22048,-0.47533c0.19175,0.09119 0.31105,0.27982 0.44222,0.4391c0.15678,-0.3198 0.26233,-0.66458 0.30856,-1.01748c0.03061,-0.11805 -0.06246,-0.20862 -0.11493,-0.30293c-0.96814,0.33791 -1.93566,0.67832 -2.92503,0.9519zM25.83509,28.64458c-0.31792,0.06184 -0.61774,0.193 -0.89756,0.35353c-0.09619,0.05871 -0.1955,0.12804 -0.24422,0.23423c0.29169,0.28357 0.66646,0.49281 1.0687,0.56589c0.38351,0.05309 0.78888,-0.07558 1.07245,-0.33916c0.09744,-0.08994 0.22986,-0.18301 0.23173,-0.32979c-0.10368,-0.16615 -0.24797,-0.30793 -0.40912,-0.41661c-0.25921,-0.10368 -0.54965,-0.11805 -0.82198,-0.06808zM8.20307,30.71077c0.58088,-0.18176 1.14365,-0.41411 1.72641,-0.58775c0.08994,0.20112 0.17801,0.4035 0.25859,0.60837c-0.39225,0.13429 -0.78326,0.27295 -1.17489,0.41037c0.07121,0.18738 0.14741,0.37227 0.22423,0.55715c-0.17364,0.07183 -0.35165,0.13367 -0.53154,0.18801c-0.17114,-0.39038 -0.3504,-0.77764 -0.50281,-1.17613zM37.80006,30.30478c0.03748,-0.10493 0.17052,-0.05184 0.25234,-0.05434c0.54528,0.07245 1.09119,0.14366 1.63709,0.21362c-0.06121,0.21424 -0.14803,0.42098 -0.25172,0.61774c-0.4416,-0.06933 -0.88007,-0.1599 -1.32479,-0.20425c0.36352,0.23485 0.74703,0.4366 1.12679,0.64459c-0.06996,0.21174 -0.15803,0.41599 -0.25546,0.61586c-0.41661,-0.22548 -0.80824,-0.49157 -1.21798,-0.72704c-0.1168,-0.07121 -0.2411,-0.13429 -0.33479,-0.23485c0.09369,-0.30106 0.23173,-0.58713 0.36852,-0.87133zM11.1406,33.43781c0.17989,-0.06683 0.35728,-0.14678 0.54716,-0.18426c0.26296,0.24984 0.46596,0.55715 0.68957,0.84197c-0.4416,0.42536 -0.86196,0.87258 -1.30855,1.29231c-0.15053,-0.17052 -0.29419,-0.34728 -0.43535,-0.52654c0.32105,-0.3198 0.66646,-0.61274 0.98875,-0.93129c-0.4416,0.1549 -0.86695,0.3529 -1.30418,0.51905c-0.15053,-0.16802 -0.29107,-0.34478 -0.42161,-0.52842c0.40599,-0.18363 0.83073,-0.31855 1.24422,-0.48282zM36.01493,33.45155c0.42223,-0.15115 0.88007,0.03935 1.198,0.32417c0.20362,0.17239 0.33729,0.4441 0.28107,0.71455c-0.10493,0.52779 -0.68644,0.92317 -1.21611,0.77764c-0.36102,-0.10244 -0.72142,-0.32604 -0.88694,-0.67395c-0.18676,-0.47095 0.18051,-0.9875 0.62398,-1.14241zM36.32724,34.13862c-0.0837,0.01874 -0.1649,0.06933 -0.15303,0.16739c0,0.21924 0.29419,0.3098 0.46221,0.20487c0.12617,-0.198 -0.11056,-0.41724 -0.30918,-0.37227zM23.51156,34.87753c0.18988,-0.29357 0.30106,-0.63148 0.48844,-0.92754c0.18738,0.29606 0.29856,0.63398 0.48844,0.92754c0.34353,0.1143 0.71517,0.11056 1.0687,0.18613c-0.23485,0.26483 -0.52155,0.48032 -0.74703,0.75328c-0.00312,0.3579 0.11555,0.70456 0.13991,1.06121c-0.3248,-0.14303 -0.63148,-0.3223 -0.95003,-0.47782c-0.31917,0.15428 -0.62523,0.33666 -0.95065,0.47907c0.02561,-0.35728 0.14303,-0.70456 0.14054,-1.06246c-0.22548,-0.27358 -0.5128,-0.48782 -0.74703,-0.75328c0.35353,-0.07558 0.72454,-0.07183 1.0687,-0.18613zM12.86639,37.10237c0.38288,-0.45971 0.79138,-0.89881 1.19987,-1.33603c0.2005,0.12929 0.39538,0.26671 0.58651,0.41037c-0.00375,0.33479 -0.01686,0.66895 -0.01749,1.00374c0.18801,-0.20737 0.37289,-0.41661 0.56277,-0.62148c0.20112,0.13179 0.39725,0.26983 0.58401,0.42098c-0.33229,0.38726 -0.6802,0.76077 -1.01374,1.14615c-0.06309,0.05621 -0.1118,0.14428 -0.19862,0.16302c-0.19987,-0.10181 -0.38663,-0.2311 -0.55153,-0.38226c-0.05122,-0.32667 0.01249,-0.66021 -0.00874,-0.98938c-0.19425,0.19175 -0.37414,0.39725 -0.56402,0.594c-0.1955,-0.13242 -0.38851,-0.26921 -0.57901,-0.40912zM31.90315,37.0574c0.54653,-0.38351 1.09181,-0.77139 1.65521,-1.12804c0.15803,0.09182 0.25671,0.25421 0.37476,0.38975c-0.17114,0.12742 -0.34541,0.25047 -0.5203,0.37351c0.2461,0.32355 0.53779,0.60774 0.78888,0.92754c-0.18863,0.14428 -0.38413,0.27795 -0.58401,0.40599c-0.28357,-0.29419 -0.53716,-0.61461 -0.81636,-0.9113c-0.18301,0.11868 -0.36477,0.24047 -0.54528,0.3629c-0.12055,-0.13804 -0.23922,-0.27733 -0.3529,-0.42036zM17.6465,37.91436c0.5584,0.18114 1.11805,0.37039 1.6602,0.594c0.02374,0.16427 -0.07683,0.3554 -0.18801,0.47845c-0.36539,-0.06246 -0.68769,-0.28295 -1.06246,-0.30731c0.2717,0.15803 0.58213,0.22548 0.86695,0.35603c-0.07683,0.13741 -0.10244,0.32667 -0.23548,0.42036c-0.28669,-0.06059 -0.54965,-0.20362 -0.83947,-0.25421c0.29856,0.22111 0.67895,0.27545 1.01436,0.42223c-0.07808,0.16365 -0.15678,0.32792 -0.23922,0.49032c-0.56464,-0.19425 -1.12117,-0.41287 -1.68956,-0.59587c0.18926,-0.55465 0.48157,-1.06683 0.71268,-1.60399zM25.78013,39.10549c0.589,-0.12492 1.18488,-0.21861 1.7795,-0.31355c0.03935,0.16864 0.07745,0.33791 0.11555,0.50718c-0.35603,0.09369 -0.7464,0.06808 -1.07932,0.23922c0.30668,-0.00375 0.60524,-0.0787 0.90568,-0.12804c0.04122,0.15365 0.07995,0.30731 0.1193,0.46158c-0.29981,0.07058 -0.60962,0.09619 -0.90068,0.20112c0.37039,0.03435 0.72829,-0.10368 1.09369,-0.14116c0.04372,0.17302 0.08307,0.34666 0.11805,0.52217c-0.60462,0.08307 -1.20237,0.20737 -1.80636,0.29794c-0.11992,-0.54716 -0.2461,-1.09431 -0.34541,-1.64646zM21.45785,39.00055c0.7183,0.06871 1.43784,0.1168 2.15552,0.18488c-0.01374,0.17177 -0.02936,0.34291 -0.04497,0.51468c-0.23423,-0.00437 -0.46783,-0.01874 -0.70143,-0.0331c-0.04497,0.38351 -0.0762,0.76827 -0.11868,1.1524c-0.24922,-0.02374 -0.53966,0.0331 -0.76077,-0.08807c0.01562,-0.38476 0.10368,-0.76452 0.09182,-1.15053c-0.22049,-0.00937 -0.44035,-0.02498 -0.66021,-0.0381c0.00999,-0.18114 0.02374,-0.36165 0.03873,-0.54216z" fill="none" stroke-width="0"></path><path d="M24.64834,5.2618c0.49157,0.0406 0.98438,0.06496 1.4747,0.12055c3.95501,0.43722 7.74262,2.19674 10.64455,4.91565c2.87694,2.67207 4.88755,6.26543 5.62583,10.12425c0.198,0.96502 0.28232,1.94752 0.34478,2.92941v1.35914c-0.1143,2.28169 -0.599,4.55088 -1.50905,6.65081c-1.51342,3.54589 -4.15551,6.59522 -7.44219,8.6102c-2.01685,1.24422 -4.27418,2.09431 -6.60959,2.49593c-0.81449,0.15365 -1.64209,0.20487 -2.4672,0.27045h-1.42036c-1.15865,-0.07495 -2.31604,-0.2005 -3.44783,-0.46596c-4.10242,-0.92192 -7.85318,-3.29105 -10.47216,-6.57773c-2.32728,-2.89193 -3.76326,-6.49154 -4.04683,-10.19358c-0.01686,-0.2842 -0.03935,-0.56839 -0.06121,-0.85196v-1.29731c0.06371,-1.12492 0.18301,-2.24858 0.4316,-3.34914c0.86758,-4.04933 3.15052,-7.76886 6.33663,-10.40907c2.63522,-2.20174 5.88629,-3.65332 9.2854,-4.14052c0.67395,-0.10806 1.35665,-0.13741 2.03622,-0.19113zM23.99126,7.86891c-0.64522,0.01062 -1.29294,0.02561 -1.93066,0.12929c0.05184,0.57589 0.14803,1.1474 0.19987,1.72329c0.57901,-0.03623 1.1574,-0.09244 1.73891,-0.08994c0.00125,-0.58713 0.00125,-1.17364 -0.00125,-1.76077c0.64959,-0.00874 1.29543,0.06558 1.94378,0.09931c0.0837,-0.57464 0.13492,-1.15365 0.21299,-1.72891c-0.7133,-0.09307 -1.43472,-0.14366 -2.15427,-0.12617c-0.00687,0.58463 0.01062,1.16926 -0.00937,1.7539zM20.13618,8.32924c0.62711,-0.12617 1.25171,-0.27295 1.89068,-0.33042c-0.00625,-0.58713 -0.12992,-1.16427 -0.17427,-1.7489c-0.71955,0.04997 -1.42848,0.20674 -2.12741,0.37789c0.12555,0.57027 0.27795,1.13304 0.41099,1.70143zM27.86632,8.3255c0.62023,0.18738 1.25296,0.34353 1.84946,0.60025c-0.203,0.54716 -0.42348,1.08744 -0.61336,1.63897c0.53404,0.21299 1.05496,0.45596 1.57276,0.70643c0.28107,-0.51155 0.54091,-1.03497 0.82073,-1.54778c0.58401,0.2842 1.12304,0.64897 1.67332,0.9925c0.30481,-0.45784 0.63522,-0.89818 0.93129,-1.36039c0.07495,-0.11118 -0.09681,-0.16864 -0.15927,-0.23048c-0.52717,-0.34291 -1.05996,-0.6827 -1.6271,-0.95565c-0.28357,0.50656 -0.53654,1.02998 -0.81699,1.53841c-0.57964,-0.28045 -1.15802,-0.56589 -1.76514,-0.78451c0.17239,-0.56277 0.42473,-1.09681 0.60275,-1.65771c-0.67333,-0.24859 -1.35602,-0.48907 -2.06183,-0.62835c-0.12804,0.56464 -0.27795,1.12429 -0.40662,1.68831zM16.50472,9.71087c0.57526,-0.29294 1.16239,-0.56277 1.76514,-0.79388c0.22798,0.54153 0.42036,1.09681 0.63023,1.64521c0.54466,-0.19488 1.09681,-0.36789 1.65646,-0.51405c-0.13492,-0.56839 -0.27233,-1.13678 -0.42161,-1.70205c-0.6371,0.12992 -1.24609,0.3629 -1.86445,0.55715c-0.1955,-0.54716 -0.41661,-1.08432 -0.60899,-1.63272c-0.67832,0.2436 -1.33104,0.55278 -1.97063,0.88257c0.25671,0.52592 0.53529,1.04247 0.81386,1.55777zM25.74952,9.74585c0.56777,0.06433 1.12991,0.17177 1.68581,0.30543c0.13991,-0.57339 0.30668,-1.14178 0.40724,-1.72391c-0.62898,-0.14054 -1.26108,-0.27045 -1.90318,-0.33479c-0.04747,0.58651 -0.1624,1.16552 -0.18988,1.75327zM13.30986,11.91823c0.48719,-0.42098 0.99125,-0.82261 1.51967,-1.1905c0.3529,0.46658 0.65771,0.96752 1.00812,1.43472c0.49531,-0.28295 0.96065,-0.62211 1.47657,-0.87195c-0.2461,-0.53404 -0.53841,-1.04622 -0.81074,-1.56714c-0.58463,0.28357 -1.12367,0.64772 -1.6727,0.9925c-0.33416,-0.47595 -0.65084,-0.96439 -1.00062,-1.4291c-0.59338,0.40287 -1.15802,0.84884 -1.69081,1.32854c0.3935,0.43098 0.76452,0.88319 1.17051,1.30293zM15.59342,13.40417c-2.21423,1.75327 -3.86382,4.21422 -4.62146,6.93688c-0.67582,2.39412 -0.67458,4.97499 0.01374,7.36661c0.88819,3.14989 2.975,5.93564 5.73389,7.69328c2.15677,1.38288 4.71578,2.14552 7.28042,2.12304c2.32166,0.02061 4.63833,-0.60462 6.65643,-1.74765c2.0206,-1.14428 3.73765,-2.8176 4.93689,-4.80635c1.21548,-2.01935 1.90567,-4.36163 1.92941,-6.72139c0.05434,-2.21798 -0.46721,-4.44408 -1.48219,-6.41534c-1.47345,-2.88693 -4.01934,-5.20797 -7.03307,-6.40222c-2.04246,-0.8276 -4.28855,-1.1118 -6.4778,-0.88444c-2.52029,0.27295 -4.95563,1.2742 -6.93626,2.85758zM33.16985,10.72648c-0.34416,0.47845 -0.6827,0.96065 -1.00312,1.45533c0.46221,0.33854 0.92129,0.6827 1.3479,1.0662c0.40225,-0.43035 0.78326,-0.87945 1.17801,-1.31667c0.49094,0.42473 0.95065,0.88569 1.37601,1.37538c-0.43722,0.39538 -0.88694,0.77576 -1.3173,1.17863c0.38413,0.42598 0.72829,0.88507 1.06683,1.34728c0.49344,-0.3198 0.97626,-0.65709 1.45284,-1.00187c-0.36664,-0.52967 -0.76952,-1.0331 -1.18925,-1.52154c0.41786,-0.40662 0.87507,-0.77014 1.29668,-1.17364c-0.46908,-0.53841 -0.97626,-1.04434 -1.51405,-1.51342c-0.40912,0.41536 -0.76389,0.88132 -1.17426,1.29606c-0.48782,-0.42036 -0.9925,-0.82198 -1.52029,-1.19175zM13.25177,14.46788c0.38851,-0.42223 0.7945,-0.82635 1.21486,-1.21611c-0.37227,-0.45222 -0.77451,-0.87945 -1.15927,-1.32104c-0.48907,0.42661 -0.95377,0.88382 -1.37663,1.37601c0.44035,0.38726 0.8707,0.78576 1.32104,1.16114zM10.71587,14.8314c-0.34416,0.54903 -0.71143,1.08682 -0.9925,1.6727c0.52217,0.2717 1.03123,0.56902 1.56776,0.81011c0.25796,-0.50468 0.5584,-0.98625 0.8782,-1.45408c-0.45784,-0.37351 -0.97251,-0.67083 -1.44159,-1.02998c0.36789,-0.52904 0.77014,-1.03372 1.19112,-1.52154c-0.42411,-0.40162 -0.87008,-0.77888 -1.3048,-1.16864c-0.47845,0.53341 -0.92442,1.09681 -1.32729,1.69019c0.46471,0.34978 0.95377,0.66646 1.4291,1.00124zM38.27601,16.5041c-0.51155,0.28107 -1.0356,0.53904 -1.54653,0.82136c0.25047,0.51717 0.49219,1.0381 0.70643,1.57214c0.54965,-0.19363 1.09056,-0.41162 1.63709,-0.61524c0.25734,0.59712 0.41411,1.22985 0.60025,1.85133c0.56464,-0.12929 1.12429,-0.28045 1.68956,-0.40787c-0.13991,-0.70581 -0.38351,-1.38725 -0.62898,-2.06183c-0.5609,0.17926 -1.09618,0.42973 -1.65833,0.60462c-0.21861,-0.60587 -0.50156,-1.1855 -0.78513,-1.76264c0.50718,-0.28482 1.03247,-0.53591 1.53966,-0.82011c-0.31293,-0.64834 -0.7083,-1.25171 -1.10493,-1.85071c-0.4822,0.32979 -0.96127,0.66396 -1.44159,0.99687c0.34353,0.54903 0.70955,1.08682 0.9925,1.67207zM7.27053,17.66149c0.5484,0.19238 1.08557,0.41349 1.63272,0.60837c-0.19425,0.61899 -0.42786,1.22735 -0.55715,1.86445c0.56527,0.14928 1.13304,0.28919 1.70268,0.42286c0.14303,-0.56027 0.3198,-1.10993 0.51155,-1.65521c-0.54716,-0.21174 -1.10181,-0.40475 -1.64334,-0.63148c0.22611,-0.60462 0.50468,-1.18738 0.79263,-1.76451c-0.51468,-0.2792 -1.0306,-0.55652 -1.55652,-0.81324c-0.33167,0.63835 -0.63772,1.29231 -0.88257,1.96876zM6.26055,21.62587c0.00062,0.07495 -0.05434,0.23173 0.0737,0.22986c0.5534,0.06309 1.10618,0.1524 1.66333,0.17614c0.05621,-0.64022 0.20425,-1.26733 0.33229,-1.89631c-0.56777,-0.13242 -1.13116,-0.28357 -1.70018,-0.41162c-0.15927,0.62586 -0.28357,1.26171 -0.36914,1.90193zM38.25602,22.2511c0.58588,-0.03498 1.16427,-0.13991 1.74952,-0.18613c-0.05184,-0.64522 -0.20425,-1.27545 -0.33229,-1.90817c-0.58213,0.10119 -1.15115,0.26608 -1.72391,0.40849c0.13616,0.55465 0.23548,1.11867 0.30668,1.68581zM40.02741,22.05747c0.04809,0.64647 0.10556,1.29231 0.09806,1.94128c-0.58526,0.00375 -1.17114,-0.00062 -1.75639,0.00187c-0.00999,1.29731 -0.17801,2.59524 -0.52904,3.8457c-0.55777,2.0181 -1.57338,3.90567 -2.9369,5.49404c-1.47907,1.72704 -3.37163,3.0993 -5.47718,3.95876c-2.43159,0.99937 -5.14176,1.30543 -7.73575,0.87882c-2.38225,-0.38226 -4.65832,-1.38725 -6.55275,-2.88069c-2.61023,-2.04184 -4.48593,-5.00872 -5.17612,-8.25293c-0.35165,-1.56839 -0.39725,-3.19049 -0.2386,-4.78636c-0.57589,-0.05309 -1.14803,-0.13929 -1.72391,-0.193c-0.09619,0.63835 -0.12242,1.28544 -0.12804,1.93066c-0.58463,0.00999 -1.17051,0.00062 -1.75577,0.005c-0.03373,3.53153 1.06121,7.05493 3.03559,9.97872c1.4266,2.11492 3.30667,3.92378 5.47905,5.26231c1.85446,1.1499 3.9244,1.94378 6.06743,2.35102c2.56588,0.47345 5.2367,0.39538 7.76386,-0.26109c2.05058,-0.5228 4.00061,-1.42785 5.73826,-2.63459c3.05183,-2.11867 5.42346,-5.20297 6.66393,-8.70702c0.92442,-2.59524 1.24172,-5.41097 0.89506,-8.14487c-0.57776,0.06309 -1.15427,0.13616 -1.73079,0.21237zM22.75079,11.38294c1.00499,-0.03935 2.01498,0.13242 2.95939,0.47533c0.66458,0.21549 1.30793,0.51842 1.86008,0.95128c0.34041,0.26483 0.69456,0.51155 1.03185,0.78013c0.41974,0.39225 0.82573,0.80137 1.17801,1.25671c0.59213,0.80949 1.04996,1.72267 1.30668,2.69393c0.15615,0.56527 0.35103,1.12554 0.39975,1.71392c0.01499,0.36602 0.1193,0.73141 0.04747,1.09806c-0.06746,0.61024 -0.17427,1.23048 -0.47408,1.77451c-0.37476,0.82323 -0.97439,1.51217 -1.54965,2.19924c-0.16115,0.19738 -0.4797,0.40412 -0.35103,0.69519c0.13242,0.39163 0.20737,0.7995 0.2361,1.21174c0.10993,0.65584 -0.01249,1.3148 -0.09119,1.96626c0.25796,-0.15803 0.48095,-0.36352 0.72142,-0.54591c0.09119,-0.07433 0.20425,-0.14491 0.22861,-0.26921c0.09307,-0.33666 0.17427,-0.69519 0.41287,-0.96377c0.2005,-0.22174 0.42848,-0.44285 0.72454,-0.52405c0.13866,-0.05247 0.29794,-0.06059 0.42348,-0.14116c0.26171,-0.29544 0.40287,-0.80887 0.86071,-0.83885c0.05372,0.18051 0.09619,0.37102 0.04685,0.55777c-0.0787,0.35228 -0.1524,0.70581 -0.22923,1.05871c0.18863,-0.06246 0.3248,0.10119 0.42036,0.24047c0.10493,0.30543 -0.09869,0.58276 -0.25921,0.82386c-0.2386,0.30856 -0.66146,0.36664 -0.95065,0.60837c-0.3935,0.48594 -0.73829,1.00874 -1.11867,1.5053c-0.38726,0.51905 -0.78576,1.03123 -1.14803,1.56901c0.47033,0.51155 0.89444,1.07495 1.18925,1.70767c0.07933,0.17114 0.16052,0.34104 0.24422,0.5103c-0.04122,-0.0025 -0.1243,-0.00812 -0.16615,-0.01062c-0.34916,-0.75328 -0.85259,-1.4266 -1.39725,-2.04933c-0.22923,-0.37476 -0.61711,-0.60587 -0.93941,-0.89256c0.37789,0.44035 0.78825,0.85696 1.1118,1.34166c0.41661,0.55278 0.7133,1.18051 1.01811,1.79824c-0.04185,-0.0025 -0.1243,-0.00874 -0.16615,-0.01124c-0.54716,-1.03247 -1.17926,-2.04496 -2.03747,-2.85008c-0.19425,-0.17926 -0.35415,-0.41911 -0.61024,-0.51468c-0.06558,-0.01249 -0.17177,0.11118 -0.10431,0.16115c0.28669,0.33854 0.63897,0.61461 0.92442,0.9544c0.44347,0.56839 0.89381,1.14178 1.20237,1.79762c0.12867,0.25234 0.26858,0.50781 0.29731,0.79512c-0.13679,-0.12555 -0.2311,-0.28794 -0.28857,-0.46283c-0.53904,0.01999 -1.06745,0.14303 -1.60274,0.20362c0.14553,0.14241 0.26671,0.3248 0.45159,0.41724c0.29232,-0.05184 0.57339,-0.1549 0.8682,-0.198c-0.09307,0.27857 -0.27233,0.53154 -0.31418,0.82386c0.08932,0.26983 0.31105,0.4822 0.401,0.75765c-0.29481,0.00187 -0.58338,-0.06433 -0.87695,-0.07058c-0.16302,0.23922 -0.34666,0.46533 -0.55902,0.66146c-0.10618,-0.26733 -0.11743,-0.56152 -0.22611,-0.82635c-0.24922,-0.16365 -0.55528,-0.21799 -0.81324,-0.36914c0.24922,-0.1599 0.50656,-0.30731 0.75515,-0.46846c0.01312,-0.2311 0.04872,-0.45909 0.0812,-0.68769c-0.50593,0.05434 -1.00749,0.14553 -1.51217,0.20799c-0.00187,0.27733 0.05247,0.55028 0.06808,0.82698c-0.08682,-0.09681 -0.18801,-0.20175 -0.18051,-0.34228c-0.05809,-1.15927 -0.33479,-2.31479 -0.88944,-3.3404c-0.18363,0.02561 -0.36852,0.0331 -0.5534,0.0356c0.3629,0.64647 0.391,1.40849 0.48594,2.12741c0.03248,0.47533 0.00437,0.95315 0.01312,1.42972c-0.03123,0 -0.09369,-0.00062 -0.12492,-0.00062c0.03248,-0.50031 -0.07058,-0.9925 -0.0762,-1.49156c-0.08744,-0.70268 -0.16677,-1.42972 -0.50406,-2.06433c-0.45971,-0.01749 -0.92254,0.02498 -1.38038,-0.03498c-0.10993,-0.03435 -0.17114,0.0837 -0.24859,0.13866c0.18613,0.0862 0.41599,0.13429 0.52779,0.32417c0.25172,0.37289 0.25671,0.85946 0.14678,1.28232c-0.11555,0.54653 -0.51093,0.97314 -0.92442,1.32229c-0.10493,0.08994 -0.23423,0.14179 -0.36977,0.16177c0.42223,-0.34416 0.78888,-0.76327 1.01936,-1.26046c0.18239,-0.41411 0.23048,-0.9163 0.01062,-1.32542c-0.12117,-0.16115 -0.29919,-0.31418 -0.51218,-0.30606c-0.20737,-0.02249 -0.31917,0.18239 -0.45346,0.30231c-0.2336,0.26796 -0.53904,0.45846 -0.78013,0.71892c-0.23048,0.24984 -0.51155,0.44472 -0.7539,0.68207c-0.2386,0.22486 -0.53654,0.38413 -0.74703,0.63835c-0.02748,0.21861 0.05059,0.43598 0.06184,0.65459c0.24734,0.16302 0.50468,0.30918 0.75328,0.46908c-0.20987,0.11056 -0.43285,0.19051 -0.65271,0.27733c-0.06496,0.03248 -0.1574,0.05247 -0.17926,0.13304c-0.08807,0.24672 -0.09806,0.5153 -0.19987,0.7589c-0.25047,-0.13429 -0.38851,-0.41911 -0.56652,-0.63522c-0.29419,0.00625 -0.58276,0.07245 -0.87695,0.07058c0.09119,-0.23798 0.24172,-0.44347 0.37102,-0.65958c0.05934,-0.09307 0.01999,-0.20737 -0.01749,-0.29981c-0.08994,-0.20674 -0.18301,-0.41224 -0.26671,-0.62148c0.29419,0.04185 0.57526,0.14678 0.86758,0.19613c0.13866,-0.05309 0.22236,-0.19488 0.33354,-0.29044c0.18176,-0.19987 0.45409,-0.28545 0.63085,-0.49094c0.12804,-0.14303 0.26046,-0.28357 0.41411,-0.39912c0.27233,-0.20425 0.47845,-0.48095 0.75015,-0.68644c0.29481,-0.22361 0.51717,-0.52654 0.81199,-0.74953c0.19738,-0.14928 0.37476,-0.32417 0.5203,-0.52467c-0.71955,-0.33979 -1.36414,-0.82136 -1.94253,-1.36352c-0.35415,-0.38975 -0.66583,-0.82073 -0.9138,-1.28607c-1.05496,-0.06059 -2.12679,-0.193 -3.10055,-0.6296c-0.57027,-0.21861 -1.06558,-0.58651 -1.53903,-0.96439c-1.03372,-0.92254 -1.74515,-2.14865 -2.25983,-3.42222c-0.25109,-0.56027 -0.36727,-1.16614 -0.48345,-1.76514c-0.05497,-0.38476 -0.01249,-0.77514 -0.02561,-1.16239c-0.03435,-1.00374 0.23985,-1.99499 0.65771,-2.90067c0.22923,-0.57089 0.57339,-1.08557 0.89506,-1.60711c0.38226,-0.60275 0.73391,-1.24234 1.27357,-1.72267c1.20362,-1.31417 2.89505,-2.08868 4.62022,-2.44096c0.8657,-0.25546 1.76701,-0.42661 2.67269,-0.38538zM18.6721,12.36358c-1.68082,0.61524 -3.22422,1.75077 -4.09367,3.3404c-0.3629,0.54153 -0.71268,1.09369 -1.00687,1.67582c-0.16615,0.401 -0.35728,0.7945 -0.48032,1.21174c-0.05559,0.1524 0.01187,0.30731 0.06496,0.44972c0.97626,2.50093 1.9419,5.00747 2.8251,7.54337c0.08807,0.21174 0.09244,0.49969 0.3223,0.61586c1.09494,0.66146 2.3835,0.96002 3.65457,0.98313c-0.09307,-0.29294 -0.2005,-0.58276 -0.25297,-0.88694c-0.09494,-0.63335 0.12117,-1.3123 0.5915,-1.75327c0.62336,-0.67895 1.50967,-0.99937 2.3379,-1.34728c0.41037,-0.13804 0.78013,-0.37102 1.19487,-0.49656c0.84759,-0.30543 1.71704,-0.56964 2.61335,-0.68769c0.44722,-0.02374 0.90568,-0.04247 1.34353,0.07558c0.29981,0.07433 0.5484,0.27295 0.77764,0.47158c0.24859,0.28357 0.39225,0.64772 0.46034,1.01561c0.66208,-0.79887 1.41224,-1.55465 1.84821,-2.51029c0.14616,-0.29794 0.28669,-0.60712 0.34416,-0.93566c-0.12804,-0.75827 -0.21237,-1.52466 -0.38226,-2.27607c-0.1268,-0.74953 -0.35852,-1.47407 -0.53966,-2.21048c-0.09869,-0.34978 -0.22923,-0.68894 -0.33479,-1.03622c-0.15803,-0.56527 -0.6296,-0.95065 -0.98001,-1.39537c-0.39288,-0.4035 -0.85509,-0.73141 -1.30355,-1.06995c-1.10118,-0.90318 -2.50342,-1.36039 -3.90004,-1.53841c-0.42223,-0.06371 -0.85071,-0.01936 -1.27545,-0.0331c-0.75078,-0.01562 -1.49531,0.13616 -2.21298,0.34541c-0.54965,0.10556 -1.08931,0.26109 -1.61586,0.44909zM30.6708,17.3292c0.26171,0.95502 0.45659,1.92879 0.59213,2.90942c0.01749,0.0812 0.05621,0.15553 0.09057,0.2311c0.06246,-0.47595 -0.02561,-0.95065 -0.08869,-1.42098c-0.06558,-0.48032 -0.23235,-0.93753 -0.34603,-1.40724c-0.13179,-0.43785 -0.26171,-0.88194 -0.48969,-1.28107c0.06059,0.32792 0.16989,0.64397 0.24172,0.96876zM12.75833,20.56404c0.0331,0.98313 0.21174,1.97376 0.62711,2.87257c0.47033,1.09369 1.06246,2.16926 1.94752,2.98437c0.16427,0.17427 0.33666,0.34478 0.54653,0.46533c-0.56964,-1.66145 -1.193,-3.30354 -1.81136,-4.94751c-0.37039,-0.94253 -0.71143,-1.89756 -1.10368,-2.83072c-0.13429,0.4747 -0.14303,0.97001 -0.20612,1.45596zM23.56465,24.00562c-0.8682,0.4291 -1.8251,0.68332 -2.62522,1.24484c-0.50031,0.31855 -0.92379,0.80949 -1.0281,1.40786c-0.15115,0.61274 0.14428,1.20112 0.36352,1.75577c0.48407,0.85509 1.21861,1.55465 2.04871,2.07369c0.37914,0.2311 0.77264,0.51967 1.2386,0.50905c0.30856,-0.00187 0.61399,0.10306 0.92254,0.0431c0.21112,-0.0381 0.42536,-0.04247 0.63897,-0.05247c0.93629,-0.1168 1.87569,-0.40037 2.63397,-0.98063c0.6346,-0.42286 1.05184,-1.09306 1.33416,-1.787c0.27982,-1.16114 0.17052,-2.39911 -0.22986,-3.51966c-0.09432,-0.37976 -0.20112,-0.78888 -0.50218,-1.06183c-0.24922,-0.21861 -0.5584,-0.37164 -0.88569,-0.42723c-0.37664,-0.0431 -0.76077,-0.03873 -1.13803,0.00187c-0.95627,0.13304 -1.86757,0.46658 -2.77138,0.79263zM30.83257,26.52216c-0.21049,0.30293 -0.42098,0.65709 -0.36789,1.04059c-0.3935,0.30356 -0.76639,0.6346 -1.18176,0.9088c-0.1268,0.06933 -0.16989,0.21237 -0.23423,0.33229c-0.17489,0.34541 -0.40662,0.66396 -0.69206,0.92629c-0.09869,0.10056 -0.21799,0.18738 -0.28357,0.31543c0.38726,0.36664 0.8301,0.67208 1.23735,1.01748c0.75702,-0.95752 1.45159,-1.96314 2.19362,-2.93253c0.25234,-0.31418 0.72767,-0.32355 0.97376,-0.64897c0.13242,-0.19238 0.31168,-0.40225 0.26546,-0.65271c-0.12492,-0.09869 -0.30606,-0.06683 -0.4366,-0.15678c0.02998,-0.5103 0.23485,-0.99312 0.25484,-1.50468c-0.2817,0.21237 -0.44285,0.53092 -0.63897,0.81511c-0.41162,0.03685 -0.84322,0.18926 -1.08994,0.53966zM25.56027,31.12239c0.47408,0.82448 0.69581,1.75827 0.82698,2.69205c0.97688,-0.10056 1.94253,-0.29606 2.92129,-0.38226c0.08932,-0.0075 0.18239,-0.01749 0.25734,-0.07308c-0.05372,-0.14366 -0.13929,-0.27233 -0.22049,-0.40162c-0.36664,-0.55965 -0.73329,-1.12554 -1.19924,-1.60961c-0.23173,-0.31168 -0.52529,-0.57089 -0.84322,-0.79138c-0.22923,0.06683 -0.4366,0.19051 -0.66083,0.2717c-0.34666,0.14491 -0.71767,0.21174 -1.08182,0.29419zM18.87635,34.23605c0.07745,0.16302 0.18738,0.3223 0.19488,0.50905c0.02498,0.2361 -0.16427,0.41099 -0.2767,0.59775c0.2055,-0.02998 0.41786,-0.06683 0.62398,-0.02249c0.15178,0.12929 0.25984,0.30044 0.391,0.44972c0.05059,-0.16927 0.07245,-0.34791 0.15115,-0.50718c0.12305,-0.19363 0.36539,-0.2411 0.5559,-0.34104c-0.15927,-0.11056 -0.33729,-0.20237 -0.46471,-0.3504c-0.07558,-0.18676 -0.07433,-0.396 -0.1218,-0.59025c-0.14616,0.12804 -0.26421,0.29794 -0.4391,0.38726c-0.21237,0.00375 -0.41287,-0.07808 -0.61461,-0.13242zM28.06494,33.97872c-0.04747,0.18676 -0.07121,0.37789 -0.07808,0.57027c-0.1574,0.13804 -0.32792,0.25921 -0.50281,0.37351c0.19175,0.09869 0.4316,0.14803 0.5559,0.33979c0.07433,0.1574 0.09182,0.33416 0.15053,0.49781c0.14116,-0.13741 0.24047,-0.3123 0.39038,-0.44035c0.20674,-0.0431 0.41911,-0.0075 0.62523,0.02311c-0.09307,-0.13866 -0.19862,-0.2717 -0.26358,-0.42661c-0.06558,-0.24547 0.0737,-0.47158 0.18114,-0.6802c-0.20175,0.05434 -0.40287,0.13616 -0.61461,0.13179c-0.17614,-0.09057 -0.29544,-0.26171 -0.4441,-0.38913zM23.7664,11.74084c0.88694,0.1524 1.71767,0.57276 2.37351,1.18738c0.69144,0.71517 1.16614,1.60899 1.50468,2.53653c0.03873,0.30356 0.08432,0.60837 0.10119,0.91442c-0.0787,0.66146 -0.07995,1.34853 -0.33729,1.97438c-0.27608,0.54466 -0.64647,1.04934 -1.12304,1.43472c-0.80637,0.64459 -1.79387,1.0687 -2.82135,1.18176c-0.86633,0.12929 -1.72142,-0.1243 -2.55839,-0.31293c-0.61461,-0.19238 -1.15802,-0.55965 -1.64147,-0.97751c-0.20612,-0.16739 -0.41287,-0.33541 -0.58588,-0.53841c-0.4747,-0.57339 -0.96002,-1.17613 -1.14865,-1.91192c-0.23985,-0.70893 -0.16739,-1.47345 -0.05871,-2.19986c0.13866,-0.89131 0.67582,-1.68831 1.37851,-2.23859c0.89194,-0.64272 1.95439,-1.04684 3.05245,-1.13304c0.62023,-0.04934 1.25359,-0.05746 1.86445,0.08307zM21.83949,11.8439c-0.93254,0.10493 -1.83947,0.42161 -2.62335,0.93816c-0.62711,0.45909 -1.19675,1.05496 -1.44159,1.80824c-0.23235,0.66958 -0.23922,1.38913 -0.19238,2.08806c0.07245,0.35603 0.18738,0.70456 0.33666,1.0356c0.60899,1.13366 1.57776,2.07057 2.73203,2.63959c0.30668,0.16115 0.66396,0.13929 0.98313,0.26296c1.09618,0.34791 2.31042,0.22423 3.34477,-0.26109c0.90818,-0.41661 1.72204,-1.09556 2.20236,-1.98c0.23735,-0.51155 0.28295,-1.08432 0.36165,-1.63584c0.06059,-0.41474 -0.01312,-0.8326 -0.10556,-1.2361c-0.08682,-0.37289 -0.30044,-0.69581 -0.45909,-1.03935c-0.51905,-1.09181 -1.4647,-2.00062 -2.62585,-2.37288c-0.80199,-0.29294 -1.67082,-0.31543 -2.51279,-0.24734zM27.24858,24.18488c0.2461,0.3148 0.37539,0.70456 0.45659,1.09119c0.03185,0.25859 0.06371,0.58151 -0.15303,0.77201c-0.16864,0.09307 -0.42161,0.10681 -0.5634,-0.04185c-0.33604,-0.30481 -0.44597,-0.77201 -0.52842,-1.19987c-0.05059,-0.28357 -0.01499,-0.68394 0.31605,-0.77451c0.17052,-0.03997 0.36539,0.0075 0.4722,0.15303zM26.82947,24.31355c-0.19238,0.07933 -0.193,0.34541 -0.02811,0.45097c0.10868,0.0837 0.24797,-0.00437 0.32355,-0.09057c0.07433,-0.18114 -0.09244,-0.43223 -0.29544,-0.3604zM23.43848,25.37164c0.2461,0.3148 0.37539,0.70456 0.45721,1.09119c0.03185,0.25859 0.06309,0.58151 -0.15365,0.77201c-0.16864,0.09307 -0.42161,0.10743 -0.5634,-0.04185c-0.3248,-0.29044 -0.43223,-0.73704 -0.52092,-1.14615c-0.05746,-0.29606 -0.04435,-0.72892 0.30856,-0.82823c0.17052,-0.03997 0.36477,0.0075 0.4722,0.15303zM23.01874,25.49968c-0.29544,0.10244 -0.09681,0.60899 0.17801,0.45534c0.27295,-0.09806 0.0837,-0.5534 -0.17801,-0.45534zM39.06301,26.37538c0.32792,-0.06496 0.67145,-0.03061 0.99312,0.05434c0.20674,0.05434 0.43223,0.20799 0.42848,0.44534c-0.01686,0.45034 -0.09681,0.89569 -0.16739,1.33978c-0.60837,-0.03997 -1.21361,-0.11743 -1.82073,-0.17302c0.05996,-0.41786 0.10244,-0.83822 0.16989,-1.25483c0.02374,-0.20799 0.193,-0.37476 0.39663,-0.41162zM39.23603,27.12054c-0.07245,0.09869 -0.05309,0.23173 -0.07121,0.34728c0.2336,0.01374 0.46658,0.03123 0.70081,0.03997c-0.01874,-0.13367 0.05184,-0.33416 -0.10868,-0.401c-0.16302,-0.06246 -0.36852,-0.08307 -0.52092,0.01374zM7.26741,26.70892c0.60462,-0.06059 1.20612,-0.14678 1.81011,-0.20862c0.06996,0.39475 0.13117,0.79013 0.19051,1.18613c0.02998,0.18926 0.03248,0.4316 -0.15553,0.54278c-0.2767,0.16677 -0.64834,0.18926 -0.94066,0.05059c-0.31543,-0.18114 -0.34853,-0.58151 -0.41411,-0.90193c0.1624,-0.02374 0.32542,-0.04622 0.48782,-0.06808c0.05184,0.09806 0.09806,0.2005 0.1649,0.29044c0.08182,0.00062 0.16427,-0.00999 0.2461,-0.01749c-0.0075,-0.11805 -0.01562,-0.2361 -0.02374,-0.35353c-0.4291,0.01562 -0.85134,0.10306 -1.27982,0.13429c-0.02686,-0.21861 -0.05621,-0.4366 -0.08557,-0.65459zM13.03191,26.80074c0.50905,0.21549 0.75702,0.79637 0.76827,1.32042c0.01811,0.26796 -0.09619,0.5509 0.02436,0.80574c0.14241,0.32355 0.31418,0.63335 0.4797,0.94565c-0.02249,-0.33292 -0.04872,-0.68082 0.0787,-0.9975c0.07183,-0.19862 0.21424,-0.35915 0.3604,-0.50656c0.16864,0.2386 0.28919,0.5178 0.28732,0.81511c0.02436,0.4341 -0.1624,0.84197 -0.396,1.19675c0.18488,0.28669 0.38226,0.56714 0.61711,0.81511c-0.04934,-0.40849 -0.10181,-0.84634 0.09556,-1.22673c0.08057,-0.17989 0.21986,-0.32355 0.35852,-0.45971c0.28607,0.3504 0.31917,0.84135 0.19738,1.26358c-0.07808,0.2767 -0.24485,0.5153 -0.39038,0.76015c0.27795,0.28669 0.55715,0.57276 0.86258,0.83135c-0.09244,-0.38039 -0.16552,-0.78513 -0.04622,-1.16801c0.07308,-0.27233 0.2361,-0.5178 0.47408,-0.67208c0.17239,0.29107 0.26796,0.6321 0.21986,0.97189c-0.03061,0.38851 -0.24172,0.72454 -0.44972,1.04184c0.14428,0.11118 0.29794,0.21174 0.42411,0.34416c-0.00999,0.06246 -0.02186,0.1243 -0.03498,0.18676c-0.36477,-0.24172 -0.69081,-0.53529 -1.01811,-0.82386c-0.29919,0.20737 -0.62898,0.4035 -1.00249,0.42161c-0.36227,0.03248 -0.72829,-0.09869 -0.9875,-0.35415c0.16864,-0.19113 0.37289,-0.36102 0.62211,-0.43098c0.34416,-0.11555 0.70893,-0.0331 1.04996,0.04997c-0.21924,-0.24297 -0.4391,-0.48594 -0.64334,-0.74203c-0.38601,0.12367 -0.80574,0.23298 -1.20612,0.10244c-0.3173,-0.08307 -0.57214,-0.30481 -0.76077,-0.56527c0.43847,-0.401 1.08744,-0.27545 1.57214,-0.03435c-0.14054,-0.25609 -0.29981,-0.50031 -0.46158,-0.74328c-0.40787,0.02498 -0.83822,-0.02436 -1.18238,-0.26233c-0.27857,-0.17364 -0.45596,-0.46346 -0.55902,-0.76889c0.4822,-0.19113 0.99562,0.0075 1.37663,0.31605c-0.13304,-0.48532 -0.60587,-0.76389 -0.7539,-1.24109c-0.15803,-0.38226 -0.12804,-0.81324 0.02374,-1.19175zM34.19983,28.12053c0.01124,-0.52405 0.25859,-1.1043 0.76702,-1.31979c0.1524,0.37851 0.18301,0.81011 0.02498,1.19175c-0.14928,0.47657 -0.62086,0.75577 -0.7539,1.24172c0.38288,-0.3123 0.90256,-0.50968 1.386,-0.31168c-0.13554,0.35852 -0.37164,0.69269 -0.72892,0.85571c-0.30731,0.17302 -0.66583,0.16552 -1.00624,0.18301c-0.20175,0.21049 -0.32604,0.48282 -0.47595,0.73017c0.33729,-0.14366 0.70206,-0.28982 1.07557,-0.20425c0.16739,0.04435 0.38851,0.07745 0.46721,0.25359c-0.2311,0.39663 -0.70081,0.61211 -1.1499,0.61087c-0.27233,0.005 -0.53154,-0.08682 -0.78888,-0.16302c-0.20425,0.25609 -0.42286,0.49969 -0.64522,0.74078c0.35603,-0.08557 0.74141,-0.16864 1.09681,-0.0331c0.23173,0.07433 0.41724,0.23798 0.57714,0.41599c-0.2461,0.23798 -0.58276,0.37851 -0.92692,0.35728c-0.39538,-0.0025 -0.7489,-0.20362 -1.06308,-0.42473c-0.32792,0.28794 -0.65271,0.58213 -1.01811,0.82323c-0.01374,-0.06184 -0.02561,-0.12367 -0.03498,-0.18551c0.12555,-0.13304 0.2792,-0.23423 0.42348,-0.34478c-0.20862,-0.3173 -0.42098,-0.65334 -0.44972,-1.04184c-0.04809,-0.33979 0.04685,-0.68082 0.22049,-0.97189c0.34728,0.22111 0.51405,0.63585 0.53404,1.03372c0.01874,0.27358 -0.04872,0.54153 -0.10618,0.80699c0.29294,-0.26358 0.59025,-0.52654 0.84384,-0.82823c-0.06496,-0.19488 -0.20987,-0.3504 -0.28919,-0.53841c-0.21112,-0.47033 -0.22236,-1.07307 0.1143,-1.48906c0.25609,0.22548 0.44347,0.53154 0.48594,0.87445c0.03997,0.27045 -0.0075,0.54216 -0.03185,0.81199c0.23548,-0.24797 0.4316,-0.52904 0.61774,-0.81511c-0.23485,-0.35415 -0.42098,-0.76202 -0.396,-1.19675c-0.00312,-0.29794 0.11805,-0.57589 0.28669,-0.81574c0.43972,0.36539 0.50968,0.97126 0.43972,1.50468c0.16427,-0.3123 0.33604,-0.62148 0.47845,-0.94503c0.12242,-0.25546 0.00687,-0.53904 0.02561,-0.80699zM27.39599,27.28168c0.15365,0.25609 0.38351,0.44972 0.56464,0.68394c-0.08682,0.05559 -0.17364,0.11118 -0.25984,0.16739c-0.05934,0.64022 -0.37414,1.28856 -0.93753,1.62897c-0.49406,0.32792 -1.15865,0.30231 -1.6627,0.00999c-0.35977,-0.14928 -0.53779,-0.54778 -0.91692,-0.66458c0.09369,-0.26858 0.16365,-0.54466 0.21924,-0.82323c0.06558,0.03935 0.13054,0.07995 0.1955,0.1218c0.41974,-0.11618 0.83572,-0.24547 1.25296,-0.37039c0.47595,-0.17614 0.9519,-0.35603 1.44347,-0.48657c-0.03935,-0.09432 -0.08557,-0.18738 -0.10306,-0.28857c0.04122,-0.1118 0.16864,-0.07121 0.20425,0.02124zM24.45409,28.93252c0.04247,0.03623 0.0862,0.0737 0.12992,0.11056c0.58151,-0.52779 1.47345,-0.78138 2.22048,-0.47533c0.19175,0.09119 0.31105,0.27982 0.44222,0.4391c0.15678,-0.3198 0.26233,-0.66458 0.30856,-1.01748c0.03061,-0.11805 -0.06246,-0.20862 -0.11493,-0.30293c-0.96814,0.33791 -1.93566,0.67832 -2.92503,0.9519c-0.01999,0.09806 -0.03997,0.19613 -0.06121,0.29419zM25.83509,28.64458c-0.31792,0.06184 -0.61774,0.193 -0.89756,0.35353c-0.09619,0.05871 -0.1955,0.12804 -0.24422,0.23423c0.29169,0.28357 0.66646,0.49281 1.0687,0.56589c0.38351,0.05309 0.78888,-0.07558 1.07245,-0.33916c0.09744,-0.08994 0.22986,-0.18301 0.23173,-0.32979c-0.10368,-0.16615 -0.24797,-0.30793 -0.40912,-0.41661c-0.25921,-0.10368 -0.54965,-0.11805 -0.82198,-0.06808zM8.20307,30.71077c0.58088,-0.18176 1.14365,-0.41411 1.72641,-0.58775c0.08994,0.20112 0.17801,0.4035 0.25859,0.60837c-0.39225,0.13429 -0.78326,0.27295 -1.17489,0.41037c0.07121,0.18738 0.14741,0.37227 0.22423,0.55715c-0.17364,0.07183 -0.35165,0.13367 -0.53154,0.18801c-0.17114,-0.39038 -0.3504,-0.77764 -0.50281,-1.17613zM37.80006,30.30478c0.03748,-0.10493 0.17052,-0.05184 0.25234,-0.05434c0.54528,0.07245 1.09119,0.14366 1.63709,0.21362c-0.06121,0.21424 -0.14803,0.42098 -0.25172,0.61774c-0.4416,-0.06933 -0.88007,-0.1599 -1.32479,-0.20425c0.36352,0.23485 0.74703,0.4366 1.12679,0.64459c-0.06996,0.21174 -0.15803,0.41599 -0.25546,0.61586c-0.41661,-0.22548 -0.80824,-0.49157 -1.21798,-0.72704c-0.1168,-0.07121 -0.2411,-0.13429 -0.33479,-0.23485c0.09369,-0.30106 0.23173,-0.58713 0.36852,-0.87133zM11.1406,33.43781c0.17989,-0.06683 0.35728,-0.14678 0.54716,-0.18426c0.26296,0.24984 0.46596,0.55715 0.68957,0.84197c-0.4416,0.42536 -0.86196,0.87258 -1.30855,1.29231c-0.15053,-0.17052 -0.29419,-0.34728 -0.43535,-0.52654c0.32105,-0.3198 0.66646,-0.61274 0.98875,-0.93129c-0.4416,0.1549 -0.86695,0.3529 -1.30418,0.51905c-0.15053,-0.16802 -0.29107,-0.34478 -0.42161,-0.52842c0.40599,-0.18363 0.83073,-0.31855 1.24422,-0.48282zM37.21293,33.77572c0.20362,0.17239 0.33729,0.4441 0.28107,0.71455c-0.10493,0.52779 -0.68644,0.92317 -1.21611,0.77764c-0.36102,-0.10244 -0.72142,-0.32604 -0.88694,-0.67395c-0.18676,-0.47095 0.18051,-0.9875 0.62398,-1.14241c0.42223,-0.15115 0.88007,0.03935 1.198,0.32417zM36.32724,34.13862c-0.0837,0.01874 -0.1649,0.06933 -0.15303,0.16739c0,0.21924 0.29419,0.3098 0.46221,0.20487c0.12617,-0.198 -0.11056,-0.41724 -0.30918,-0.37227zM23.51156,34.87753c0.18988,-0.29357 0.30106,-0.63148 0.48844,-0.92754c0.18738,0.29606 0.29856,0.63398 0.48844,0.92754c0.34353,0.1143 0.71517,0.11056 1.0687,0.18613c-0.23485,0.26483 -0.52155,0.48032 -0.74703,0.75328c-0.00312,0.3579 0.11555,0.70456 0.13991,1.06121c-0.3248,-0.14303 -0.63148,-0.3223 -0.95003,-0.47782c-0.31917,0.15428 -0.62523,0.33666 -0.95065,0.47907c0.02561,-0.35728 0.14303,-0.70456 0.14054,-1.06246c-0.22548,-0.27358 -0.5128,-0.48782 -0.74703,-0.75328c0.35353,-0.07558 0.72454,-0.07183 1.0687,-0.18613zM12.86639,37.10237c0.38288,-0.45971 0.79138,-0.89881 1.19987,-1.33603c0.2005,0.12929 0.39538,0.26671 0.58651,0.41037c-0.00375,0.33479 -0.01686,0.66895 -0.01749,1.00374c0.18801,-0.20737 0.37289,-0.41661 0.56277,-0.62148c0.20112,0.13179 0.39725,0.26983 0.58401,0.42098c-0.33229,0.38726 -0.6802,0.76077 -1.01374,1.14615c-0.06309,0.05621 -0.1118,0.14428 -0.19862,0.16302c-0.19987,-0.10181 -0.38663,-0.2311 -0.55153,-0.38226c-0.05122,-0.32667 0.01249,-0.66021 -0.00874,-0.98938c-0.19425,0.19175 -0.37414,0.39725 -0.56402,0.594c-0.1955,-0.13242 -0.38851,-0.26921 -0.57901,-0.40912zM31.90315,37.0574c0.54653,-0.38351 1.09181,-0.77139 1.65521,-1.12804c0.15803,0.09182 0.25671,0.25421 0.37476,0.38975c-0.17114,0.12742 -0.34541,0.25047 -0.5203,0.37351c0.2461,0.32355 0.53779,0.60774 0.78888,0.92754c-0.18863,0.14428 -0.38413,0.27795 -0.58401,0.40599c-0.28357,-0.29419 -0.53716,-0.61461 -0.81636,-0.9113c-0.18301,0.11868 -0.36477,0.24047 -0.54528,0.3629c-0.12055,-0.13804 -0.23922,-0.27733 -0.3529,-0.42036zM17.6465,37.91436c0.5584,0.18114 1.11805,0.37039 1.6602,0.594c0.02374,0.16427 -0.07683,0.3554 -0.18801,0.47845c-0.36539,-0.06246 -0.68769,-0.28295 -1.06246,-0.30731c0.2717,0.15803 0.58213,0.22548 0.86695,0.35603c-0.07683,0.13741 -0.10244,0.32667 -0.23548,0.42036c-0.28669,-0.06059 -0.54965,-0.20362 -0.83947,-0.25421c0.29856,0.22111 0.67895,0.27545 1.01436,0.42223c-0.07808,0.16365 -0.15678,0.32792 -0.23922,0.49032c-0.56464,-0.19425 -1.12117,-0.41287 -1.68956,-0.59587c0.18926,-0.55465 0.48157,-1.06683 0.71268,-1.60399zM25.78013,39.10549c0.589,-0.12492 1.18488,-0.21861 1.7795,-0.31355c0.03935,0.16864 0.07745,0.33791 0.11555,0.50718c-0.35603,0.09369 -0.7464,0.06808 -1.07932,0.23922c0.30668,-0.00375 0.60524,-0.0787 0.90568,-0.12804c0.04122,0.15365 0.07995,0.30731 0.1193,0.46158c-0.29981,0.07058 -0.60962,0.09619 -0.90068,0.20112c0.37039,0.03435 0.72829,-0.10368 1.09369,-0.14116c0.04372,0.17302 0.08307,0.34666 0.11805,0.52217c-0.60462,0.08307 -1.20237,0.20737 -1.80636,0.29794c-0.11992,-0.54716 -0.2461,-1.09431 -0.34541,-1.64646zM21.45785,39.00055c0.7183,0.06871 1.43784,0.1168 2.15552,0.18488c-0.01374,0.17177 -0.02936,0.34291 -0.04497,0.51468c-0.23423,-0.00437 -0.46783,-0.01874 -0.70143,-0.0331c-0.04497,0.38351 -0.0762,0.76827 -0.11868,1.1524c-0.24922,-0.02374 -0.53966,0.0331 -0.76077,-0.08807c0.01562,-0.38476 0.10368,-0.76452 0.09182,-1.15053c-0.22049,-0.00937 -0.44035,-0.02498 -0.66021,-0.0381c0.00999,-0.18114 0.02374,-0.36165 0.03873,-0.54216z" fill="#ffffff" stroke-width="0"></path><path d="M2,24c0,-12.15026 9.84974,-22 22,-22c12.15026,0 22,9.84974 22,22c0,12.15026 -9.84974,22 -22,22c-12.15026,0 -22,-9.84974 -22,-22z" id="base 1 13 1" fill="none" stroke-width="1"></path><path d="M2,24c0,-12.15026 9.84974,-22 22,-22c12.15026,0 22,9.84974 22,22c0,12.15026 -9.84974,22 -22,22c-12.15026,0 -22,-9.84974 -22,-22z" id="base 1 9 1" fill="none" stroke-width="1"></path><path d="M2,24c0,-12.15026 9.84974,-22 22,-22c12.15026,0 22,9.84974 22,22c0,12.15026 -9.84974,22 -22,22c-12.15026,0 -22,-9.84974 -22,-22z" id="base 1 5 1" fill="none" stroke-width="1"></path><path d="M2,24c0,-12.15026 9.84974,-22 22,-22c12.15026,0 22,9.84974 22,22c0,12.15026 -9.84974,22 -22,22c-12.15026,0 -22,-9.84974 -22,-22z" id="base 1 1 1" fill="none" stroke-width="1"></path><g fill="#000000" stroke-width="1" font-family="Roboto, sans-serif" font-weight="400" font-size="14" text-anchor="start"><g id="#00acd0ff 1 1"></g></g><rect x="2" y="2" width="44" height="22" fill="none" stroke-width="1"></rect><path d="M2,24v-22h44v22z" fill="none" stroke-width="1"></path><path d="M2,24v-22h44v22z" fill="none" stroke-width="1"></path><path d="M2,24v-22h44v22z" fill="none" stroke-width="1"></path><path d="M2,24v-22h44v22z" fill="none" stroke-width="1"></path><g fill="#000000" stroke-width="1" font-family="Roboto, sans-serif" font-weight="400" font-size="14" text-anchor="start"><g id="#00acd0ff 1 1"></g></g><rect x="2" y="2" width="44" height="22" fill="none" stroke-width="1"></rect><path d="M2,24v-22h44v22z" fill="none" stroke-width="1"></path><path d="M2,24v-22h44v22z" fill="none" stroke-width="1"></path><path d="M2,24v-22h44v22z" fill="none" stroke-width="1"></path><path d="M2,24v-22h44v22z" fill="none" stroke-width="1"></path><g fill="#000000" stroke-width="1" font-family="Roboto, sans-serif" font-weight="400" font-size="14" text-anchor="start"><g id="#00acd0ff 1 1"></g></g><rect x="2" y="2" width="44" height="22" fill="none" stroke-width="1"></rect><path d="M2,24v-22h44v22z" fill="none" stroke-width="1"></path><path d="M2,24v-22h44v22z" fill="none" stroke-width="1"></path><path d="M2,24v-22h44v22z" fill="none" stroke-width="1"></path><path d="M2,24v-22h44v22z" fill="none" stroke-width="1"></path><g fill="#000000" stroke-width="1" font-family="Roboto, sans-serif" font-weight="400" font-size="14" text-anchor="start"><g id="#00acd0ff 1 1"></g></g><rect x="2" y="2" width="44" height="22" fill="none" stroke-width="1"></rect><path d="M2,24v-22h44v22z" fill="none" stroke-width="1"></path><path d="M2,24v-22h44v22z" fill="none" stroke-width="1"></path><path d="M2,24v-22h44v22z" fill="none" stroke-width="1"></path><path d="M2,24v-22h44v22z" fill="none" stroke-width="1"></path></g></svg>